<svg width="543" height="413" viewBox="0 0 543 413" fill="none" xmlns="http://www.w3.org/2000/svg">
<g clip-path="url(#clip0_58_177)">
<path d="M461.277 250.2C463.965 243.04 462.004 235.935 456.895 234.331C451.786 232.728 445.465 237.233 442.777 244.394C440.088 251.555 442.05 258.66 447.158 260.263C452.267 261.866 458.588 257.361 461.277 250.2Z" fill="#F4F4F4"/>
<path d="M443.085 244.377C446.726 242.88 447.647 237.543 445.143 232.457C442.64 227.371 437.659 224.461 434.019 225.958C430.379 227.455 429.457 232.791 431.961 237.877C434.464 242.964 439.445 245.874 443.085 244.377Z" fill="#F4F4F4"/>
<path d="M436.193 256.185L455.659 256.2C459.222 256.202 462.113 258.849 462.111 262.106L462.104 270.202C462.102 273.459 459.207 276.101 455.644 276.098L436.178 276.083L436.193 256.185Z" fill="#F4F4F4"/>
<g opacity="0.05">
<path d="M436.193 256.185L455.659 256.2C459.222 256.202 462.113 258.849 462.111 262.106L462.104 270.202C462.102 273.459 459.207 276.101 455.644 276.098L436.178 276.083L436.193 256.185Z" fill="#292A2E"/>
</g>
<g opacity="0.05">
<path d="M459.639 242.466C459.631 242.466 459.624 242.466 459.615 242.465C459.535 242.458 459.465 242.414 459.427 242.35C459.328 242.177 459.378 241.988 459.414 241.85C459.527 241.42 459.497 240.951 459.334 240.554C459.288 240.441 459.351 240.314 459.476 240.271C459.599 240.229 459.738 240.286 459.785 240.401C459.941 240.783 459.995 241.222 459.942 241.641C460.229 241.405 460.542 241.207 460.868 241.057C460.986 241.003 461.13 241.046 461.19 241.155C461.249 241.263 461.202 241.395 461.084 241.449C460.622 241.661 460.187 241.985 459.824 242.386C459.778 242.437 459.71 242.466 459.639 242.466L459.639 242.466Z" fill="#292A2E"/>
<path d="M452.363 237.234C452.332 237.234 452.301 237.229 452.272 237.217C452.075 237.143 451.984 236.967 451.917 236.839C451.711 236.44 451.37 236.098 450.976 235.89C450.862 235.83 450.822 235.695 450.888 235.591C450.954 235.485 451.102 235.449 451.216 235.51C451.597 235.71 451.936 236.014 452.18 236.366C452.24 236.011 452.346 235.671 452.494 235.362C452.548 235.251 452.69 235.202 452.81 235.249C452.932 235.298 452.987 235.427 452.934 235.538C452.723 235.978 452.608 236.49 452.603 237.017C452.602 237.09 452.562 237.157 452.495 237.197C452.455 237.222 452.409 237.234 452.363 237.234L452.363 237.234Z" fill="#292A2E"/>
<path d="M446.22 244.309C446.189 244.309 446.158 244.303 446.129 244.293C445.933 244.219 445.842 244.045 445.776 243.917C445.568 243.515 445.226 243.173 444.833 242.965C444.718 242.904 444.678 242.77 444.744 242.665C444.811 242.56 444.958 242.524 445.072 242.584C445.453 242.785 445.792 243.088 446.037 243.441C446.096 243.086 446.203 242.747 446.351 242.437C446.404 242.326 446.546 242.277 446.667 242.324C446.788 242.372 446.844 242.502 446.79 242.613C446.579 243.054 446.465 243.564 446.459 244.091C446.459 244.164 446.418 244.232 446.352 244.272C446.312 244.296 446.265 244.309 446.219 244.309L446.22 244.309Z" fill="#292A2E"/>
<path d="M452.737 243.244C452.706 243.244 452.675 243.238 452.646 243.227C452.449 243.153 452.358 242.978 452.292 242.85C452.084 242.45 451.743 242.108 451.349 241.9C451.235 241.839 451.195 241.705 451.261 241.6C451.328 241.495 451.474 241.459 451.59 241.52C451.969 241.72 452.309 242.024 452.554 242.376C452.613 242.021 452.719 241.681 452.867 241.372C452.92 241.261 453.064 241.211 453.183 241.259C453.305 241.308 453.36 241.437 453.307 241.548C453.096 241.989 452.981 242.5 452.976 243.026C452.976 243.099 452.935 243.167 452.868 243.207C452.828 243.232 452.782 243.244 452.736 243.244L452.737 243.244Z" fill="#292A2E"/>
<path d="M456.876 249.435C456.839 249.435 456.801 249.427 456.767 249.411C456.696 249.378 456.648 249.314 456.639 249.241C456.614 249.048 456.733 248.889 456.821 248.773C457.095 248.411 457.251 247.965 457.254 247.54C457.256 247.419 457.363 247.322 457.495 247.322L457.496 247.322C457.629 247.323 457.736 247.422 457.734 247.544C457.73 247.956 457.608 248.386 457.392 248.759C457.754 248.636 458.125 248.559 458.489 248.531C458.618 248.522 458.737 248.61 458.748 248.732C458.759 248.852 458.661 248.959 458.529 248.968C458.017 249.008 457.486 249.159 456.992 249.408C456.957 249.426 456.916 249.435 456.876 249.435Z" fill="#292A2E"/>
<path d="M446.762 253.242C446.729 253.242 446.696 253.235 446.664 253.222C446.47 253.142 446.385 252.964 446.323 252.833C446.13 252.429 445.8 252.077 445.413 251.858C445.3 251.794 445.266 251.659 445.335 251.556C445.406 251.453 445.554 251.422 445.666 251.485C446.039 251.696 446.369 252.009 446.601 252.369C446.673 252.016 446.79 251.68 446.949 251.374C447.006 251.264 447.15 251.22 447.269 251.27C447.389 251.323 447.44 251.453 447.383 251.563C447.157 251.997 447.026 252.504 447.003 253.031C447 253.104 446.957 253.17 446.889 253.208C446.851 253.23 446.807 253.241 446.763 253.241L446.762 253.242Z" fill="#292A2E"/>
<path d="M452.777 255.284C452.769 255.284 452.761 255.284 452.753 255.283C452.673 255.275 452.602 255.232 452.565 255.167C452.466 254.995 452.516 254.807 452.551 254.67C452.664 254.237 452.634 253.768 452.472 253.372C452.426 253.258 452.488 253.132 452.612 253.089C452.736 253.046 452.875 253.104 452.922 253.217C453.079 253.6 453.132 254.04 453.079 254.459C453.366 254.222 453.68 254.024 454.005 253.874C454.123 253.82 454.267 253.863 454.327 253.972C454.387 254.08 454.339 254.212 454.221 254.266C453.76 254.478 453.325 254.802 452.962 255.204C452.916 255.254 452.848 255.283 452.777 255.283L452.777 255.284Z" fill="#292A2E"/>
</g>
<g opacity="0.05">
<path d="M442.008 234.33C442.001 234.33 441.993 234.33 441.984 234.329C441.904 234.321 441.834 234.278 441.797 234.214C441.697 234.041 441.747 233.852 441.784 233.714C441.896 233.284 441.866 232.814 441.704 232.418C441.657 232.305 441.721 232.178 441.845 232.135C441.968 232.093 442.107 232.151 442.154 232.264C442.31 232.647 442.364 233.086 442.311 233.505C442.598 233.269 442.912 233.071 443.237 232.921C443.355 232.867 443.499 232.91 443.559 233.019C443.619 233.127 443.571 233.259 443.453 233.313C442.992 233.525 442.556 233.849 442.193 234.25C442.147 234.301 442.079 234.33 442.008 234.33L442.008 234.33Z" fill="#292A2E"/>
<path d="M436.964 229.412C436.933 229.412 436.902 229.407 436.873 229.396C436.676 229.322 436.586 229.146 436.519 229.018C436.312 228.618 435.97 228.276 435.577 228.069C435.462 228.008 435.422 227.873 435.489 227.769C435.555 227.664 435.701 227.628 435.817 227.688C436.197 227.889 436.536 228.192 436.781 228.544C436.841 228.19 436.947 227.85 437.095 227.541C437.148 227.43 437.291 227.38 437.411 227.428C437.532 227.476 437.588 227.606 437.534 227.717C437.323 228.157 437.209 228.668 437.203 229.195C437.203 229.268 437.162 229.335 437.096 229.375C437.056 229.4 437.009 229.412 436.963 229.412L436.964 229.412Z" fill="#292A2E"/>
<path d="M436.15 234.64C436.119 234.64 436.089 234.634 436.059 234.623C435.862 234.548 435.771 234.373 435.704 234.244C435.498 233.845 435.157 233.503 434.764 233.295C434.649 233.235 434.609 233.101 434.675 232.996C434.741 232.891 434.889 232.855 435.003 232.915C435.384 233.116 435.723 233.419 435.967 233.771C436.028 233.417 436.134 233.077 436.282 232.767C436.335 232.656 436.477 232.606 436.598 232.655C436.719 232.703 436.774 232.832 436.721 232.943C436.51 233.384 436.395 233.895 436.39 234.422C436.389 234.495 436.349 234.563 436.282 234.603C436.243 234.627 436.196 234.639 436.15 234.639L436.15 234.64Z" fill="#292A2E"/>
<path d="M440.291 240.831C440.253 240.831 440.215 240.823 440.181 240.806C440.11 240.773 440.061 240.709 440.053 240.637C440.028 240.444 440.148 240.285 440.235 240.17C440.508 239.807 440.664 239.361 440.669 238.936C440.671 238.815 440.778 238.718 440.909 238.718L440.912 238.718C441.044 238.72 441.151 238.819 441.149 238.94C441.144 239.353 441.022 239.782 440.806 240.155C441.169 240.032 441.54 239.955 441.903 239.927C442.023 239.916 442.151 240.006 442.162 240.128C442.174 240.248 442.075 240.354 441.943 240.364C441.433 240.403 440.902 240.555 440.407 240.804C440.371 240.822 440.331 240.831 440.291 240.831L440.291 240.831Z" fill="#292A2E"/>
<path d="M435.269 239.464C435.08 239.464 434.928 239.359 434.814 239.28C434.433 239.015 433.963 238.859 433.513 238.846C433.38 238.842 433.276 238.741 433.28 238.619C433.285 238.498 433.395 238.398 433.529 238.407C433.967 238.42 434.42 238.543 434.813 238.751C434.689 238.408 434.614 238.058 434.593 237.716C434.586 237.595 434.687 237.491 434.819 237.484C434.967 237.472 435.065 237.57 435.073 237.691C435.103 238.173 435.253 238.676 435.508 239.145C435.544 239.209 435.542 239.286 435.504 239.348C435.465 239.411 435.396 239.453 435.318 239.461C435.302 239.462 435.285 239.463 435.27 239.463L435.269 239.464Z" fill="#292A2E"/>
</g>
<path d="M415.43 263.7L370.28 263.666L370.271 275.674L415.421 275.708L415.43 263.7Z" fill="#F4F4F4"/>
<path opacity="0.05" d="M409.367 263.695L403.451 263.69L403.442 275.699L409.358 275.704L409.367 263.695Z" fill="#292A2E"/>
<path d="M400.647 266.298L376.048 266.28L376.042 273.396L400.641 273.415L400.647 266.298Z" fill="white"/>
<path d="M376.231 248.488L334.267 265.206L339.516 276.215L381.481 259.497L376.231 248.488Z" fill="#F4F4F4"/>
<path opacity="0.05" d="M376.231 248.488L334.267 265.206L339.516 276.215L381.481 259.497L376.231 248.488Z" fill="#292A2E"/>
<path d="M345.401 260.77L339.902 262.961L345.152 273.97L350.651 271.779L345.401 260.77Z" fill="white"/>
<path d="M372.009 253.017L349.146 262.125L352.256 268.649L375.12 259.541L372.009 253.017Z" fill="white"/>
<path opacity="0.05" d="M345.445 381.356L334.099 381.347L334.093 388.274L345.44 388.282L345.445 381.356Z" fill="#292A2E"/>
<path opacity="0.05" d="M512.036 381.482L500.689 381.473L500.684 388.4L512.03 388.408L512.036 381.482Z" fill="#292A2E"/>
<path d="M522.516 275.956L323.777 275.806L323.698 381.339L522.436 381.489L522.516 275.956Z" fill="#F4F4F4"/>
<path opacity="0.03" d="M522.516 275.956L323.777 275.806L323.698 381.339L522.436 381.489L522.516 275.956Z" fill="#292A2E"/>
<path d="M495.061 275.936L296.323 275.786L296.244 381.318L494.982 381.469L495.061 275.936Z" fill="#F4F4F4"/>
<path opacity="0.05" d="M317.991 381.335L306.645 381.326L306.639 388.253L317.986 388.261L317.991 381.335Z" fill="#292A2E"/>
<path opacity="0.05" d="M484.582 381.461L473.235 381.452L473.23 388.379L484.576 388.387L484.582 381.461Z" fill="#292A2E"/>
<path opacity="0.7" d="M489.495 282.456L301.879 282.314L301.859 309.081L489.474 309.222L489.495 282.456Z" fill="white"/>
<path opacity="0.7" d="M489.469 315.774L301.854 315.632L301.833 342.398L489.449 342.54L489.469 315.774Z" fill="white"/>
<path opacity="0.7" d="M489.445 349.09L301.829 348.949L301.809 375.715L489.425 375.857L489.445 349.09Z" fill="white"/>
<path opacity="0.05" d="M335.049 299.468C337.312 299.47 339.148 297.794 339.149 295.726C339.151 293.658 337.318 291.979 335.055 291.978C332.792 291.976 330.957 293.651 330.955 295.72C330.954 297.788 332.787 299.466 335.049 299.468Z" fill="#292A2E"/>
<path opacity="0.05" d="M456.298 299.56C458.561 299.561 460.397 297.886 460.398 295.818C460.4 293.749 458.567 292.071 456.304 292.07C454.041 292.068 452.206 293.743 452.204 295.812C452.203 297.88 454.036 299.558 456.298 299.56Z" fill="#292A2E"/>
<path opacity="0.05" d="M335.025 332.785C337.288 332.787 339.123 331.112 339.125 329.043C339.126 326.975 337.293 325.297 335.031 325.295C332.768 325.293 330.932 326.969 330.931 329.037C330.929 331.105 332.762 332.784 335.025 332.785Z" fill="#292A2E"/>
<path opacity="0.05" d="M456.274 332.877C458.537 332.879 460.372 331.203 460.374 329.135C460.375 327.067 458.542 325.389 456.28 325.387C454.017 325.385 452.181 327.061 452.18 329.129C452.178 331.197 454.011 332.875 456.274 332.877Z" fill="#292A2E"/>
<path opacity="0.05" d="M335 366.103C337.262 366.104 339.098 364.429 339.099 362.361C339.101 360.292 337.268 358.614 335.005 358.612C332.743 358.611 330.907 360.286 330.905 362.354C330.904 364.423 332.737 366.101 335 366.103Z" fill="#292A2E"/>
<path opacity="0.05" d="M456.249 366.195C458.511 366.196 460.347 364.521 460.348 362.452C460.35 360.384 458.517 358.706 456.254 358.704C453.992 358.703 452.156 360.378 452.154 362.446C452.153 364.515 453.986 366.193 456.249 366.195Z" fill="#292A2E"/>
<path d="M466.367 23.72L378.765 23.6538L378.686 127.885L466.288 127.951L466.367 23.72Z" fill="#F4F4F4"/>
<path d="M466.288 127.951L469.13 127.953L469.209 23.7223L466.367 23.7202L466.288 127.951Z" fill="#F4F4F4"/>
<path opacity="0.05" d="M466.288 127.951L469.13 127.953L469.209 23.7223L466.367 23.7202L466.288 127.951Z" fill="#292A2E"/>
<path opacity="0.05" d="M450.394 42.6949L394.708 42.6528L394.658 108.91L450.344 108.952L450.394 42.6949Z" fill="#292A2E"/>
<path opacity="0.03" d="M450.394 42.6951L447.492 42.6929L447.442 108.95L450.344 108.952L450.394 42.6951Z" fill="#292A2E"/>
<path d="M537.913 153.637L466.269 153.583L466.219 219.675L537.863 219.729L537.913 153.637Z" fill="#F4F4F4"/>
<path opacity="0.05" d="M524.853 165.666L479.311 165.632L479.279 207.645L524.821 207.679L524.853 165.666Z" fill="#292A2E"/>
<path d="M537.863 219.729L540.705 219.731L540.755 153.639L537.913 153.637L537.863 219.729Z" fill="#F4F4F4"/>
<path opacity="0.05" d="M537.863 219.729L540.705 219.731L540.755 153.639L537.913 153.637L537.863 219.729Z" fill="#292A2E"/>
<path opacity="0.03" d="M524.852 165.666L521.95 165.664L521.918 207.677L524.82 207.679L524.852 165.666Z" fill="#292A2E"/>
<path d="M190.372 44.9858L7.55957 44.8477L7.43333 211.957L190.245 212.095L190.372 44.9858Z" fill="#F4F4F4"/>
<path d="M192.468 44.9874L190.372 44.9858L190.246 212.095L192.341 212.097L192.468 44.9874Z" fill="#F4F4F4"/>
<path opacity="0.05" d="M192.468 44.9874L190.372 44.9858L190.246 212.095L192.341 212.097L192.468 44.9874Z" fill="#292A2E"/>
<path opacity="0.05" d="M145.998 160.105L146.031 116.384L106.851 116.354L106.832 141.755L46.143 141.709L46.109 186.685L20.315 186.666L20.2959 211.967L46.0899 211.987L51.0587 211.99L181.451 212.089L181.491 160.131L145.998 160.105Z" fill="#292A2E"/>
<path opacity="0.34" d="M140.408 121.127L111.877 121.105L111.873 125.852L140.404 125.874L140.408 121.127Z" fill="#FFFFFA"/>
<path opacity="0.34" d="M140.4 130.964L111.869 130.942L111.866 135.689L140.396 135.711L140.4 130.964Z" fill="#FFFFFA"/>
<path opacity="0.34" d="M140.393 140.801L111.862 140.779L111.859 145.526L140.39 145.548L140.393 140.801Z" fill="#FFFFFA"/>
<path opacity="0.34" d="M176.429 164.736L171.17 164.732L171.166 169.479L176.425 169.483L176.429 164.736Z" fill="#FFFFFA"/>
<path opacity="0.34" d="M176.421 174.572L171.162 174.568L171.159 179.315L176.417 179.319L176.421 174.572Z" fill="#FFFFFA"/>
<path opacity="0.34" d="M176.413 184.41L171.154 184.406L171.151 189.153L176.41 189.157L176.413 184.41Z" fill="#FFFFFA"/>
<path opacity="0.34" d="M166.7 164.729L161.441 164.725L161.438 169.472L166.697 169.476L166.7 164.729Z" fill="#FFFFFA"/>
<path opacity="0.34" d="M166.692 174.565L161.434 174.561L161.43 179.308L166.689 179.312L166.692 174.565Z" fill="#FFFFFA"/>
<path opacity="0.34" d="M166.685 184.402L161.426 184.398L161.422 189.145L166.681 189.149L166.685 184.402Z" fill="#FFFFFA"/>
<path opacity="0.34" d="M157.234 164.721L151.976 164.717L151.972 169.464L157.231 169.468L157.234 164.721Z" fill="#FFFFFA"/>
<path opacity="0.34" d="M157.227 174.558L151.968 174.554L151.964 179.301L157.223 179.305L157.227 174.558Z" fill="#FFFFFA"/>
<path opacity="0.34" d="M157.22 184.395L151.961 184.391L151.957 189.138L157.216 189.142L157.22 184.395Z" fill="#FFFFFA"/>
<path d="M190.31 127.603L153.525 127.576L153.587 44.958L150.545 44.9557L150.483 127.573L51.1227 127.498L51.1851 44.8806L48.1431 44.8783L48.0807 127.496L7.49716 127.465L7.49506 130.246L48.0786 130.277L48.0169 211.988L51.0589 211.99L51.1206 130.279L150.481 130.354L150.419 212.065L153.461 212.068L153.523 130.356L190.308 130.384L190.31 127.603Z" fill="white"/>
<path d="M197.529 211.9L0.151367 211.75L0.147169 217.308L197.525 217.457L197.529 211.9Z" fill="#F4F4F4"/>
<path opacity="0.1" d="M197.529 211.9L0.151367 211.75L0.147169 217.308L197.525 217.457L197.529 211.9Z" fill="#292A2E"/>
<path opacity="0.1" d="M200.378 211.902L197.528 211.899L197.524 217.457L200.374 217.459L200.378 211.902Z" fill="#292A2E"/>
<path opacity="0.1" d="M200.378 211.902L197.528 211.899L197.524 217.457L200.374 217.459L200.378 211.902Z" fill="#292A2E"/>
<path d="M79.3267 243.453L403.026 243.697C410.975 243.703 417.423 237.817 417.429 230.551L417.593 13.9107C417.598 6.64431 411.158 0.748866 403.209 0.742861L79.5102 0.498331C71.561 0.492326 65.1125 6.37804 65.107 13.6444L64.9434 230.285C64.9379 237.551 71.3775 243.447 79.3267 243.453Z" fill="white"/>
<path d="M64.4634 230.285L64.627 13.6446C64.6327 6.14768 71.3092 0.0538687 79.51 0.0600638L403.209 0.304594C411.41 0.310789 418.078 6.41468 418.072 13.9116L417.908 230.552C417.903 238.048 411.226 244.143 403.025 244.136L79.3258 243.892C71.1245 243.886 64.4577 237.782 64.4634 230.285ZM79.5094 0.937127C71.8375 0.931332 65.5918 6.63189 65.5865 13.6448L65.4228 230.285C65.4175 237.298 71.6552 243.008 79.3265 243.014L403.025 243.258C410.697 243.264 416.943 237.564 416.948 230.551L417.112 13.9109C417.117 6.89796 410.88 1.18797 403.208 1.18217L79.5094 0.937127Z" fill="#292A2E"/>
<path d="M65.1072 13.6428L65.0972 26.882L417.581 27.1483L417.591 13.9091C417.597 6.64288 411.157 0.747247 403.208 0.741242L79.5105 0.496713C71.5615 0.490708 65.1127 6.3766 65.1072 13.6428Z" fill="#292A2E"/>
<path d="M303.431 183.633L384.35 183.694L396.563 192.069L396.596 148.41C396.598 144.857 393.45 141.975 389.563 141.972L303.462 141.907C299.575 141.904 296.423 144.782 296.42 148.335L296.398 177.195C296.395 180.747 299.544 183.63 303.431 183.633Z" fill="#573D00"/>
<path opacity="0.11" d="M303.431 183.633L384.35 183.694L396.563 192.069L396.596 148.41C396.598 144.857 393.45 141.975 389.563 141.972L303.462 141.907C299.575 141.904 296.423 144.782 296.42 148.335L296.398 177.195C296.395 180.747 299.544 183.63 303.431 183.633Z" fill="white"/>
<path opacity="0.49" d="M303.431 183.633L384.35 183.694L396.563 192.069L396.596 148.41C396.598 144.857 393.45 141.975 389.563 141.972L303.462 141.907C299.575 141.904 296.423 144.782 296.42 148.335L296.398 177.195C296.395 180.747 299.544 183.63 303.431 183.633Z" fill="white"/>
<path d="M305.036 159.274L387.962 159.336C388.131 159.336 388.268 159.211 388.268 159.057C388.268 158.902 388.131 158.776 387.962 158.776L305.037 158.714C304.868 158.713 304.73 158.839 304.73 158.993C304.73 159.148 304.867 159.274 305.036 159.274Z" fill="white"/>
<path d="M305.043 151.31L387.969 151.373C388.138 151.373 388.275 151.248 388.275 151.093C388.275 150.938 388.138 150.813 387.969 150.813L305.044 150.75C304.874 150.75 304.737 150.875 304.737 151.03C304.737 151.185 304.874 151.31 305.043 151.31Z" fill="white"/>
<path d="M305.031 167.67L387.956 167.732C388.125 167.732 388.262 167.607 388.262 167.453C388.263 167.298 388.125 167.172 387.956 167.172L305.031 167.11C304.862 167.109 304.725 167.235 304.724 167.389C304.724 167.544 304.861 167.67 305.031 167.67Z" fill="white"/>
<path d="M305.025 176.065L354.274 176.102C354.444 176.102 354.581 175.977 354.581 175.823C354.581 175.668 354.444 175.542 354.275 175.542L305.025 175.505C304.856 175.505 304.719 175.63 304.719 175.785C304.718 175.94 304.855 176.065 305.025 176.065Z" fill="white"/>
<path d="M298.551 120.788L385.226 120.854L396.611 128.661L396.636 95.6694C396.638 92.3574 393.703 89.6706 390.08 89.6678L298.575 89.5987C294.952 89.596 292.013 92.2784 292.01 95.5904L291.996 114.786C291.993 118.098 294.928 120.785 298.551 120.788L298.551 120.788Z" fill="#573D00"/>
<path opacity="0.11" d="M298.551 120.788L385.226 120.854L396.611 128.661L396.636 95.6694C396.638 92.3574 393.703 89.6706 390.08 89.6678L298.575 89.5987C294.952 89.596 292.013 92.2784 292.01 95.5904L291.996 114.786C291.993 118.098 294.928 120.785 298.551 120.788L298.551 120.788Z" fill="white"/>
<path opacity="0.49" d="M298.551 120.788L385.226 120.854L396.611 128.661L396.636 95.6694C396.638 92.3574 393.703 89.6706 390.08 89.6678L298.575 89.5987C294.952 89.596 292.013 92.2784 292.01 95.5904L291.996 114.786C291.993 118.098 294.928 120.785 298.551 120.788L298.551 120.788Z" fill="white"/>
<path d="M300.048 98.0808L388.593 98.1477C388.751 98.1478 388.879 98.0313 388.879 97.8869C388.879 97.7425 388.751 97.6258 388.593 97.6257L300.048 97.5588C299.89 97.5587 299.763 97.6752 299.762 97.8196C299.762 97.964 299.89 98.0807 300.048 98.0808Z" fill="white"/>
<path d="M300.042 105.907L388.587 105.974C388.745 105.974 388.873 105.857 388.873 105.713C388.873 105.569 388.745 105.452 388.587 105.452L300.042 105.385C299.884 105.385 299.757 105.501 299.757 105.646C299.757 105.79 299.884 105.907 300.042 105.907Z" fill="white"/>
<path d="M300.036 113.733L357.188 113.776C357.346 113.776 357.474 113.66 357.474 113.516C357.474 113.371 357.347 113.254 357.189 113.254L300.037 113.211C299.879 113.211 299.751 113.328 299.751 113.472C299.751 113.616 299.878 113.733 300.036 113.733Z" fill="white"/>
<path d="M496.398 389.679C496.398 389.679 493.852 401.702 481.534 402.363C469.217 403.024 471.881 411.995 471.881 411.995L518.949 412.031L518.965 390.535L496.398 389.679Z" fill="#573D00"/>
<path d="M522.324 170.34C522.324 170.34 522.179 166.725 522.204 174.925C522.297 205.512 521.038 397.372 521.038 397.372L490.109 397.112L471.545 169.06L522.324 170.34Z" fill="#262626"/>
<path d="M443.584 389.639C443.584 389.639 441.037 401.662 428.72 402.323C416.402 402.984 419.066 411.955 419.066 411.955L466.135 411.991L466.151 390.495L443.584 389.639Z" fill="#573D00"/>
<path d="M437.766 172.651C437.766 172.651 433.823 277.185 434.221 282.295L437.768 396.518L468.186 397.054L473.18 278.193C473.18 278.193 476.42 245.407 485.11 214.967C489.569 199.347 492.223 183.344 493.109 167.221L437.766 172.651Z" fill="#262626"/>
<path d="M477.839 246.798L475.329 211.339C475.329 211.339 472.712 226.077 472.703 238.783C472.698 244.993 474.079 269.582 474.079 269.582L477.839 246.798Z" fill="#0A0A0A"/>
<path d="M522.66 170.338L522.761 170.343C522.761 170.343 522.689 168.56 522.66 170.338Z" fill="#333333"/>
<path d="M522.533 170.338L522.634 170.343C522.634 170.343 522.562 168.56 522.533 170.338Z" fill="#333333"/>
<path d="M353.114 85.361C353.522 84.6302 354.354 84.2835 355.154 84.3755C355.154 84.3426 355.154 84.3087 355.176 84.28C355.216 84.2297 355.278 84.2153 355.34 84.219L353.957 83.3116C353.122 82.7632 352.781 81.7225 353.275 80.8977C353.786 80.0421 354.889 79.7336 355.803 80.0822C355.799 80.0642 355.812 80.0472 355.815 80.0287L355.247 79.6558C354.461 79.1399 354.123 78.1814 354.528 77.3786C355.075 76.2985 356.518 75.9872 357.52 76.6456L358.831 77.5057C358.835 77.4985 358.831 77.4902 358.836 77.4836C358.842 77.4748 358.855 77.4749 358.863 77.4672C358.257 76.8419 358.177 75.8975 358.733 75.1904C359.353 74.2804 360.782 74.4675 361.629 75.0235L369.344 79.9033L367.966 77.7792C367.413 76.9274 367.615 75.7859 368.517 75.2368C369.479 74.6513 370.768 74.9282 371.35 75.8247L378.874 87.4233C380.71 90.2527 379.75 93.9026 376.708 95.6601C373.238 97.6654 368.784 97.5449 365.449 95.3561L353.798 87.7101C353.03 87.2055 352.683 86.1314 353.113 85.3615L353.114 85.361Z" fill="#FF9E85"/>
<g opacity="0.25">
<path d="M366.468 82.3284C366.409 82.4023 366.296 82.4197 366.213 82.3677L358.883 77.719C358.799 77.666 358.778 77.5606 358.836 77.4841C358.885 77.4081 359.01 77.3887 359.093 77.4417L366.424 82.0905C366.508 82.1434 366.528 82.2488 366.47 82.3253L366.468 82.3284L366.468 82.3284Z" fill="#0C0C0C"/>
</g>
<g opacity="0.25">
<path d="M364.315 85.3395C364.256 85.4135 364.143 85.4308 364.061 85.3789L355.88 80.1905C355.796 80.1375 355.776 80.0322 355.834 79.9556C355.887 79.8858 356.007 79.8602 356.09 79.9132L364.271 85.1016C364.355 85.1546 364.375 85.2599 364.317 85.3364L364.315 85.3395Z" fill="#0C0C0C"/>
</g>
<g opacity="0.25">
<path d="M362.002 88.614C361.943 88.6879 361.83 88.7053 361.748 88.6533L355.222 84.5149C355.138 84.4619 355.117 84.3565 355.175 84.28C355.235 84.204 355.348 84.1846 355.432 84.2376L361.958 88.376C362.042 88.429 362.063 88.5344 362.005 88.6109L362.002 88.614Z" fill="#0C0C0C"/>
</g>
<path d="M383.322 84.786L405.419 119.244L432.437 86.8989L454.841 105.391L416.523 150.685L416.272 151.007C414.936 152.682 413.17 154.11 411.026 155.139C403.544 158.729 394.294 156.094 390.366 149.254L358.947 97.1544L383.322 84.786Z" fill="#573D00"/>
<path d="M407.585 123.388C407.628 123.388 407.671 123.378 407.713 123.359C407.851 123.295 407.907 123.14 407.836 123.014L405.67 119.127C405.6 119.001 405.43 118.951 405.292 119.015C405.154 119.079 405.099 119.234 405.169 119.361L407.335 123.247C407.384 123.336 407.483 123.387 407.585 123.387L407.585 123.388Z" fill="#0C0C0C"/>
<path d="M505.71 42.0864C505.71 42.0864 506.74 56.8375 509.785 61.2205C518.553 73.8379 521.223 83.7712 512.683 91.3208C504.143 98.8709 449.107 99.5152 444.732 82.3858C441.05 67.9646 448.565 66.3359 450.255 54.3928C451.02 48.9886 453.167 37.6521 453.167 37.6521" fill="#0A0A0A"/>
<path d="M458.745 79.6587C458.84 79.6474 459.882 95.6399 480.207 94.2608C494.277 93.308 499.304 79.6667 499.627 79.6669C498.11 79.3709 495.556 78.9404 494.882 78.6116C492.668 77.5217 489.927 76.3872 489.216 72.454C488.806 70.1868 489.513 58.5913 489.3 56.2975L467.7 60.6876C467.998 65.5314 470.101 76.7622 462.697 78.7435C461.465 79.0714 460.138 79.3725 458.745 79.6587Z" fill="#FF9E85"/>
<path opacity="0.22" d="M467.386 74.1582C467.693 73.266 467.875 72.4897 468.038 71.0949C468.33 68.6001 468.177 66.3058 467.903 63.9683C472.266 63.4408 476.456 61.7664 479.843 59.1969C480.242 60.5511 482.766 65.5508 482.155 66.8369C480.998 69.2683 475.249 74.1641 467.387 74.1582L467.386 74.1582Z" fill="#0C0C0C"/>
<path d="M470.253 69.1269C478.776 69.7987 487.918 66.5686 490.076 56.1817L493.861 46.8153C496.02 36.4283 491.802 26.9711 481.103 25.1118C470.404 23.2525 461.806 26.4794 459.648 36.8663C459.648 36.8663 458.315 42.809 458.109 44.8194C457.332 52.4005 457.321 68.107 470.252 69.1264L470.253 69.1269Z" fill="#FF9E85"/>
<path d="M459.899 42.9096C459.938 43.2467 461.326 43.2123 463.172 42.9486C465.019 42.6848 466.654 42.3711 466.587 41.9533C466.5 41.4261 464.926 41.2137 463.079 41.478C461.233 41.7422 459.837 42.3793 459.899 42.9096Z" fill="#0A0A0A"/>
<path d="M502.42 50.0894L490.37 53.1184C483.107 50.4257 483.378 34.2843 483.378 34.2843C483.378 34.2843 474.548 42.1393 453.168 37.652C453.168 37.652 457.475 11.2612 489.061 19.2115C499.246 21.7748 506.549 32.0302 505.629 44.5705C504.984 53.3586 502.42 50.0889 502.42 50.0889L502.42 50.0894Z" fill="#0A0A0A"/>
<path d="M490.591 59.2375C493.843 59.8026 497.192 58.7487 498.109 54.2726C498.717 51.2992 496.079 49.0401 492.828 48.475L490.739 50.1751L487.796 58.7519L490.591 59.2375Z" fill="#FF9E85"/>
<path d="M461.898 47.2002C462.553 47.2007 463.083 46.7165 463.084 46.1186C463.084 45.5207 462.554 45.0356 461.9 45.0351C461.246 45.0346 460.715 45.5189 460.715 46.1168C460.715 46.7147 461.244 47.1997 461.898 47.2002Z" fill="#0A0A0A"/>
<path d="M468.609 54.7024C468.848 54.7026 469.054 54.5373 469.08 54.3149C469.107 54.077 468.919 53.8636 468.658 53.8388L466.149 53.5969L467.697 49.016C467.774 48.7874 467.634 48.5448 467.384 48.4742C467.134 48.4036 466.869 48.5314 466.791 48.7599L465.073 53.8443C465.032 53.9681 465.053 54.1027 465.131 54.2107C465.209 54.3186 465.336 54.3891 465.477 54.4031L468.559 54.6998C468.576 54.7014 468.593 54.7024 468.609 54.7024Z" fill="#0A0A0A"/>
<path d="M470.688 59.942C474.983 59.9453 476.263 57.5735 476.32 57.4626C476.432 57.2463 476.331 56.9883 476.094 56.8859C475.859 56.784 475.578 56.8752 475.465 57.0899C475.411 57.1906 474.097 59.5197 469.372 58.9998C469.106 58.9698 468.875 59.1407 468.844 59.378C468.813 59.6154 468.998 59.8313 469.258 59.8598C469.768 59.9157 470.244 59.9417 470.687 59.942L470.688 59.942Z" fill="#0A0A0A"/>
<path d="M474.286 42.6938C474.172 43.0164 475.456 43.4998 477.261 43.9435C479.066 44.3873 480.7 44.7071 480.823 44.3002C480.978 43.7866 479.633 43.0087 477.828 42.5649C476.023 42.1212 474.465 42.1868 474.286 42.6938Z" fill="#0A0A0A"/>
<path d="M474.127 47.9962C474.781 47.9967 475.312 47.5122 475.312 46.914C475.313 46.3158 474.783 45.8305 474.128 45.83C473.474 45.8295 472.943 46.314 472.943 46.9122C472.942 47.5104 473.472 47.9957 474.127 47.9962Z" fill="#0A0A0A"/>
<path d="M488.678 44.51C488.69 45.4214 486.174 48.695 486.522 49.5493C487.07 50.8964 489.362 53.0694 490.369 53.1185C492.14 53.2046 490.607 50.3451 492.769 48.7817C493.116 48.7553 493.471 48.7514 493.829 48.7949C495.267 48.9521 496.506 49.6092 497.364 50.5537L497.219 46.4221" fill="#0A0A0A"/>
<path d="M433.329 114.623C433.962 121.474 437.032 164.213 437.639 172.651L522.161 172.715C522.644 165.105 524.813 131.831 526.635 116.95C528.374 102.751 531.771 95.6443 529.288 91.4441C525.232 84.5797 514.136 80.6063 506.569 79.6639C501.948 79.0886 494.998 78.6733 494.998 78.6733C494.998 78.6733 494.401 89.5558 480.368 90.1504C461.264 90.9596 462.549 78.6488 462.455 78.6487C459.36 78.6464 441.68 80.4237 437.353 82.7638C425.562 89.1348 431.986 100.105 433.329 114.623L433.329 114.623Z" fill="#573D00"/>
<path d="M432.628 148.254C432.69 147.435 433.306 146.818 434.081 146.615C434.067 146.585 434.053 146.554 434.061 146.519C434.076 146.459 434.127 146.423 434.185 146.404L432.524 146.066C431.52 145.861 430.76 145.027 430.859 144.091C430.962 143.12 431.844 142.44 432.834 142.433C432.823 142.418 432.827 142.397 432.822 142.38L432.14 142.24C431.196 142.048 430.472 141.288 430.501 140.404C430.539 139.214 431.732 138.411 432.937 138.656L434.512 138.976C434.512 138.969 434.506 138.962 434.508 138.954C434.509 138.944 434.522 138.939 434.526 138.93C433.7 138.572 433.221 137.732 433.428 136.882C433.607 135.822 435.001 135.482 436.019 135.689L445.21 137.408L443.031 135.949C442.157 135.364 441.852 134.241 442.446 133.413C443.079 132.529 444.383 132.321 445.303 132.937L457.205 140.904C460.108 142.848 460.794 146.549 458.751 149.257C456.421 152.347 452.273 153.835 448.266 153.018L434.267 150.167C433.344 149.979 432.563 149.116 432.628 148.253L432.628 148.254Z" fill="#FF9E85"/>
<g opacity="0.25">
<path d="M443.607 140.671C443.585 140.76 443.489 140.817 443.39 140.799L434.652 139.154C434.552 139.135 434.488 139.046 434.509 138.954C434.52 138.867 434.627 138.804 434.727 138.823L443.465 140.468C443.565 140.487 443.629 140.576 443.608 140.667L443.607 140.671Z" fill="#0C0C0C"/>
</g>
<g opacity="0.25">
<path d="M442.92 144.215C442.897 144.304 442.801 144.361 442.703 144.342L432.951 142.506C432.851 142.487 432.787 142.398 432.807 142.307C432.827 142.224 432.925 142.157 433.026 142.176L442.777 144.011C442.877 144.03 442.941 144.119 442.921 144.211L442.92 144.215Z" fill="#0C0C0C"/>
</g>
<g opacity="0.25">
<path d="M442.201 148.056C442.178 148.144 442.082 148.201 441.984 148.183L434.205 146.719C434.105 146.7 434.041 146.611 434.061 146.519C434.084 146.427 434.179 146.369 434.279 146.388L442.058 147.852C442.158 147.871 442.222 147.96 442.202 148.051L442.201 148.056Z" fill="#0C0C0C"/>
</g>
<path d="M449.128 158.085L525.081 170.691C525.64 170.747 526.197 170.775 526.752 170.775C530.976 170.778 535.046 169.195 537.98 166.357C541.299 163.145 542.78 158.698 541.982 154.34L531.391 96.551C529.982 88.8671 522.028 83.6824 513.621 84.9673C505.215 86.2536 499.542 93.5253 500.951 101.209L508.172 140.991L452.485 134.556L449.128 158.086L449.128 158.085Z" fill="#573D00"/>
<path d="M525.082 170.948C525.215 170.948 525.333 170.862 525.358 170.737C525.386 170.598 525.284 170.464 525.132 170.439L449.441 157.877L452.728 134.842L508.137 141.245C508.229 141.256 508.313 141.228 508.375 141.169C508.437 141.111 508.464 141.029 508.45 140.949L503.859 115.523C503.834 115.384 503.691 115.285 503.536 115.312C503.383 115.335 503.28 115.467 503.305 115.607L507.835 140.692L452.521 134.3C452.371 134.283 452.228 134.381 452.207 134.522L448.85 158.052C448.831 158.189 448.931 158.314 449.078 158.339L525.032 170.945C525.049 170.947 525.065 170.949 525.082 170.949L525.082 170.948Z" fill="#0C0C0C"/>
<path d="M508.219 140.739L508.13 141.247L513.016 141.965L513.105 141.458L508.219 140.739Z" fill="#0C0C0C"/>
<path d="M433.97 119.071L433.409 119.1L434.076 129.979L434.638 129.95L433.97 119.071Z" fill="#0C0C0C"/>
<path d="M364.394 69.7553L248.83 69.668L231.371 81.6023L231.418 19.2527C231.422 14.1789 235.924 10.0693 241.475 10.0735L364.439 10.1664C369.99 10.1706 374.486 14.287 374.482 19.3608L374.451 60.5761C374.447 65.6499 369.945 69.7595 364.394 69.7553Z" fill="#573D00"/>
<path opacity="0.11" d="M364.394 69.7553L248.83 69.668L231.371 81.6023L231.418 19.2527C231.422 14.1789 235.924 10.0693 241.475 10.0735L364.439 10.1664C369.99 10.1706 374.486 14.287 374.482 19.3608L374.451 60.5761C374.447 65.6499 369.945 69.7595 364.394 69.7553Z" fill="white"/>
<path d="M243.724 34.875L362.153 34.9645C362.394 34.9647 362.59 34.786 362.59 34.5651C362.59 34.3441 362.395 34.1652 362.153 34.165L243.724 34.0755C243.483 34.0753 243.287 34.254 243.287 34.4749C243.287 34.6959 243.482 34.8748 243.724 34.875Z" fill="white"/>
<path d="M243.733 23.502L362.161 23.5914C362.403 23.5916 362.599 23.4129 362.599 23.192C362.599 22.9711 362.404 22.7921 362.162 22.7919L243.733 22.7025C243.491 22.7023 243.296 22.881 243.296 23.1019C243.295 23.3228 243.491 23.5018 243.733 23.502Z" fill="white"/>
<path d="M243.714 46.8648L362.143 46.9542C362.385 46.9544 362.58 46.7757 362.58 46.5548C362.581 46.3339 362.385 46.1549 362.143 46.1547L243.715 46.0653C243.473 46.0651 243.277 46.2437 243.277 46.4647C243.277 46.6856 243.472 46.8646 243.714 46.8648Z" fill="white"/>
<path d="M243.705 58.855L314.04 58.9081C314.282 58.9083 314.478 58.7296 314.478 58.5087C314.478 58.2878 314.283 58.1088 314.041 58.1086L243.706 58.0555C243.464 58.0553 243.268 58.234 243.268 58.4549C243.268 58.6759 243.464 58.8548 243.705 58.855Z" fill="white"/>
<path d="M70.7323 344.506C70.5884 344.506 70.4446 344.456 70.3351 344.355C69.5436 343.631 68.2626 330.348 64.8154 290.801C63.405 274.619 62.0726 259.334 61.0988 250.046C61.029 249.382 60.748 249.305 60.6553 249.279C59.3133 248.908 55.2281 251.848 52.9469 254.423C52.7517 254.643 52.3976 254.678 52.156 254.499C51.915 254.32 51.8776 253.996 52.0728 253.776C53.5816 252.073 58.4976 247.61 60.9792 248.295C61.4799 248.433 62.1007 248.831 62.2179 249.947C63.1923 259.244 64.5247 274.533 65.9357 290.719C68.0304 314.751 70.4037 341.977 71.1888 343.693C71.3472 343.894 71.3273 344.175 71.1293 344.356C71.0196 344.456 70.8762 344.506 70.7323 344.506Z" fill="#494949"/>
<path d="M59.6431 267.089C68.9754 260.262 72.0748 249.627 66.5658 243.335C61.0569 237.043 49.0257 237.477 39.6935 244.304C30.3612 251.131 27.2618 261.767 32.7707 268.058C38.2797 274.35 50.3108 273.916 59.6431 267.089Z" fill="#E2C275"/>
<path opacity="0.2" d="M59.6431 267.089C68.9754 260.262 72.0748 249.627 66.5658 243.335C61.0569 237.043 49.0257 237.477 39.6935 244.304C30.3612 251.131 27.2618 261.767 32.7707 268.058C38.2797 274.35 50.3108 273.916 59.6431 267.089Z" fill="white"/>
<path d="M35.3833 269.658C35.3203 269.658 35.2568 269.638 35.204 269.599C35.0849 269.508 35.0682 269.347 35.1677 269.237L61.7714 239.956C61.8704 239.847 62.0475 239.831 62.1671 239.922C62.2862 240.013 62.3029 240.175 62.2034 240.284L35.5997 269.566C35.544 269.627 35.4642 269.658 35.3833 269.658Z" fill="white"/>
<path d="M76.5347 338.229C76.4734 338.229 76.411 338.22 76.3498 338.2C76.057 338.107 75.9021 337.814 76.004 337.546L86.0087 311.305C86.6091 309.73 88.0264 308.557 89.8001 308.167C91.5743 307.776 93.4199 308.232 94.7388 309.385L100.014 313.999C100.238 314.195 100.246 314.52 100.031 314.725C99.8164 314.93 99.4606 314.937 99.2364 314.741L93.9614 310.128C92.9206 309.218 91.4639 308.857 90.063 309.166C88.6631 309.473 87.5444 310.399 87.0702 311.642L77.0656 337.884C76.9845 338.096 76.7674 338.229 76.5347 338.228L76.5347 338.229Z" fill="#494949"/>
<path d="M114.75 328.542C121.667 323.546 121.264 312.545 113.852 303.972C106.439 295.398 94.8234 292.499 87.9074 297.495C80.9913 302.491 81.3938 313.491 88.8063 322.065C96.2188 330.638 107.834 333.538 114.75 328.542Z" fill="#E2C275"/>
<path d="M66.1975 342.829C65.9435 342.828 65.7131 342.669 65.6515 342.434L48.9436 278.378C48.7071 277.47 47.9729 276.795 46.981 276.573C45.9891 276.352 44.9968 276.64 44.3285 277.345L39.1594 282.797C38.9564 283.011 38.6005 283.034 38.3663 282.849C38.132 282.663 38.1064 282.338 38.3095 282.124L43.4786 276.671C44.4152 275.684 45.859 275.263 47.2482 275.574C48.6369 275.885 49.7058 276.868 50.037 278.139L66.7449 342.195C66.8167 342.471 66.6304 342.748 66.3285 342.814C66.2847 342.823 66.2408 342.828 66.1975 342.828L66.1975 342.829Z" fill="#494949"/>
<path d="M60.0499 297.042C62.0949 286.276 56.7117 276.431 48.026 275.051C39.3404 273.671 30.6415 281.28 28.5964 292.046C26.5514 302.811 31.9347 312.657 40.6203 314.037C49.3059 315.416 58.0049 307.808 60.0499 297.042Z" fill="#E2C275"/>
<path d="M70.7335 344.506C70.7104 344.506 70.6874 344.505 70.6638 344.503C70.3558 344.467 70.1367 344.211 70.1746 343.929L80.9344 264.525C81.1775 262.734 82.4995 261.291 84.3857 260.759C86.2713 260.226 88.2545 260.736 89.5598 262.09L101.78 274.761C101.986 274.974 101.963 275.298 101.73 275.486C101.497 275.674 101.142 275.653 100.937 275.441L88.7167 262.77C87.7074 261.724 86.176 261.33 84.7177 261.741C83.2599 262.152 82.2377 263.268 82.0506 264.652L71.2908 344.056C71.2558 344.317 71.0128 344.507 70.7335 344.507L70.7335 344.506Z" fill="#494949"/>
<path d="M114.318 281.806C118.59 274.758 113.577 264.75 103.121 259.454C92.6647 254.157 80.7249 255.576 76.4526 262.625C72.1802 269.673 77.1932 279.681 87.6493 284.978C98.1054 290.274 110.045 288.855 114.318 281.806Z" fill="#E2C275"/>
<path opacity="0.2" d="M114.75 328.542C121.667 323.546 121.264 312.545 113.852 303.972C106.439 295.398 94.8234 292.499 87.9074 297.495C80.9913 302.491 81.3938 313.491 88.8063 322.065C96.2188 330.638 107.834 333.538 114.75 328.542Z" fill="white"/>
<path opacity="0.5" d="M60.0499 297.042C62.0949 286.276 56.7117 276.431 48.026 275.051C39.3404 273.671 30.6415 281.28 28.5964 292.046C26.5514 302.811 31.9347 312.657 40.6203 314.037C49.3059 315.416 58.0049 307.808 60.0499 297.042Z" fill="white"/>
<path opacity="0.5" d="M114.318 281.806C118.59 274.758 113.577 264.75 103.121 259.454C92.6647 254.157 80.7249 255.576 76.4526 262.625C72.1802 269.673 77.1932 279.681 87.6493 284.978C98.1054 290.274 110.045 288.855 114.318 281.806Z" fill="white"/>
<path d="M84.3673 411.897L56.9955 411.876L52.5205 331.82L88.9632 331.848L84.3673 411.897Z" fill="#292A2E"/>
<path opacity="0.3" d="M84.3673 411.897L56.9955 411.876L52.5205 331.82L88.9632 331.848L84.3673 411.897Z" fill="white"/>
<path d="M114.752 328.797C114.668 328.797 114.586 328.764 114.531 328.7L87.6873 297.653C87.5912 297.541 87.6116 297.38 87.7336 297.292C87.8562 297.204 88.0327 297.223 88.1287 297.334L114.972 328.381C115.068 328.493 115.048 328.654 114.926 328.742C114.874 328.78 114.812 328.797 114.752 328.797Z" fill="white"/>
<path d="M112.53 284.291C112.472 284.291 112.414 284.275 112.364 284.241L78.0008 261.267C77.8755 261.184 77.8481 261.023 77.9398 260.908C78.0315 260.794 78.2074 260.769 78.3327 260.853L112.696 283.827C112.822 283.91 112.849 284.071 112.757 284.186C112.702 284.255 112.617 284.291 112.53 284.291L112.53 284.291Z" fill="white"/>
<path d="M39.226 313.701C39.2018 313.701 39.1776 313.699 39.1535 313.693C39.0034 313.656 38.9147 313.515 38.9547 313.378L49.9279 275.903C49.9679 275.766 50.1248 275.685 50.2721 275.721C50.4221 275.758 50.5108 275.899 50.4708 276.036L39.4976 313.511C39.4638 313.626 39.3496 313.702 39.226 313.701Z" fill="white"/>
<path opacity="0.2" d="M157.29 196.132C195.416 196.161 226.344 167.932 226.371 133.081C226.397 98.2297 195.511 69.954 157.385 69.9252C119.26 69.8964 88.3312 98.1254 88.3049 132.976C88.2785 167.827 119.164 196.103 157.29 196.132Z" fill="#573D00"/>
<path d="M91.0653 198.611C85.2322 187.102 84.463 174.144 88.9007 162.123C94.635 146.587 108.393 134.707 125.704 130.344L130.28 145.506C118.483 148.479 109.11 156.571 105.204 167.152C102.182 175.339 102.705 184.164 106.677 192L91.0658 198.611L91.0653 198.611Z" fill="#573D00"/>
<path d="M91.9491 219.391C90.0695 219.39 88.2575 218.447 87.347 216.81C82.2833 207.703 86.2679 196.529 96.2293 191.902C106.19 187.274 118.415 190.918 123.479 200.025C124.771 202.348 123.758 205.188 121.217 206.369C118.677 207.549 115.568 206.623 114.276 204.3C113.073 202.136 111.02 200.53 108.495 199.777C105.969 199.024 103.275 199.215 100.908 200.315C96.0206 202.586 94.066 208.068 96.5504 212.536C97.842 214.859 96.8292 217.699 94.2883 218.88C93.5382 219.228 92.7377 219.393 91.9496 219.392L91.9491 219.391Z" fill="#292A2E"/>
<path d="M224.701 153.26C215.161 153.253 205.869 150.952 197.582 146.514L206.278 132.944C212.822 136.449 220.294 137.995 227.887 137.412C237.307 136.689 245.955 132.74 252.239 126.292L265.087 136.755C255.859 146.224 243.159 152.024 229.327 153.085C227.781 153.203 226.237 153.262 224.701 153.261L224.701 153.26Z" fill="#573D00"/>
<path d="M269.167 139.348C264.471 139.344 259.961 137.863 256.297 135.092C252.127 131.936 249.549 127.486 249.041 122.559C248.532 117.633 250.152 112.82 253.603 109.009C255.42 107.001 258.674 106.72 260.871 108.382C263.067 110.044 263.374 113.018 261.557 115.026C258.062 118.886 258.655 124.627 262.878 127.822C264.924 129.37 267.507 130.099 270.152 129.869C272.796 129.641 275.185 128.486 276.877 126.615C278.695 124.608 281.949 124.327 284.145 125.989C286.341 127.65 286.649 130.625 284.831 132.632C281.38 136.444 276.511 138.799 271.122 139.264C270.469 139.32 269.816 139.348 269.167 139.347L269.167 139.348Z" fill="#292A2E"/>
<path d="M114.149 131.161L125.51 190.138C128.541 205.875 143.492 217.354 160.972 217.368C177.987 217.381 192.691 206.512 196.238 191.301L210.247 131.233L114.148 131.161L114.149 131.161Z" fill="#573D00"/>
<path d="M162.189 144.183C188.726 144.203 210.242 138.405 210.248 131.233C210.253 124.061 188.745 118.231 162.208 118.211C135.672 118.191 114.155 123.989 114.149 131.161C114.144 138.333 135.652 144.163 162.189 144.183Z" fill="#292A2E"/>
<path d="M209.174 96.3776C209.16 115.471 188.133 124.641 162.204 124.622C136.274 124.602 115.261 115.4 115.276 96.3066C115.29 77.2137 136.326 55.4607 162.256 55.4803C188.185 55.4999 209.189 77.2846 209.174 96.3776Z" fill="#573D00"/>
<path d="M187.901 73.1918L161.196 73.1716C152.825 73.1653 146.034 79.3631 146.029 87.0149L146.029 87.0154C146.023 94.6671 152.804 100.875 161.175 100.882L187.88 100.902C196.251 100.908 203.042 94.7102 203.047 87.0585L203.047 87.058C203.053 79.4062 196.272 73.1981 187.901 73.1918Z" fill="white"/>
<path d="M173.738 92.0727C172.787 92.072 172.018 91.3675 172.018 90.4986C172.021 87.5458 169.395 85.1418 166.165 85.1393C162.935 85.1369 160.305 87.537 160.303 90.4898C160.302 91.3586 159.532 92.062 158.581 92.0612C157.631 92.0605 156.861 91.356 156.862 90.4872C156.865 85.8003 161.04 81.99 166.167 81.9938C171.295 81.9977 175.463 85.8143 175.46 90.5012C175.459 91.3701 174.689 92.0734 173.738 92.0727L173.738 92.0727Z" fill="#292A2E"/>
<path d="M197.139 92.0908C196.189 92.09 195.419 91.3855 195.42 90.5167C195.422 87.5639 192.796 85.1599 189.566 85.1574C186.337 85.155 183.706 87.555 183.704 90.5079C183.704 91.3767 182.933 92.08 181.982 92.0793C181.032 92.0786 180.262 91.3741 180.263 90.5053C180.267 85.8183 184.441 82.008 189.569 82.0119C194.696 82.0158 198.865 85.8324 198.861 90.5193C198.861 91.3881 198.09 92.0915 197.139 92.0908Z" fill="#292A2E"/>
<path d="M162.256 40.7027L160.171 40.7944L161.185 60.0018L163.27 59.9101L162.256 40.7027Z" fill="#573D00"/>
<path d="M161.285 45.6585C163.392 45.6601 165.101 44.0998 165.103 42.1736C165.104 40.2474 163.397 38.6846 161.29 38.6831C159.183 38.6815 157.473 40.2417 157.472 42.1679C157.471 44.0941 159.178 45.6569 161.285 45.6585Z" fill="#292A2E"/>
<path d="M390.239 206.143L257.423 206.043C251.253 206.038 246.248 210.607 246.243 216.247C246.239 221.887 251.237 226.463 257.408 226.467L390.224 226.568C396.394 226.572 401.399 222.004 401.404 216.364C401.408 210.724 396.409 206.148 390.239 206.143Z" fill="white"/>
<path d="M390.224 226.953L257.407 226.853C251.014 226.848 245.817 222.09 245.821 216.247C245.826 210.403 251.03 205.653 257.423 205.658L390.24 205.758C396.632 205.763 401.829 210.521 401.825 216.364C401.82 222.208 396.616 226.958 390.224 226.953ZM257.422 206.428C251.494 206.424 246.668 210.829 246.664 216.247C246.66 221.666 251.479 226.077 257.407 226.082L390.224 226.182C396.152 226.187 400.977 221.782 400.981 216.364C400.986 210.945 396.167 206.533 390.239 206.529L257.422 206.428Z" fill="#292A2E"/>
<path d="M532.414 412.402L48.7856 412.037C48.5675 412.036 48.3912 411.875 48.3913 411.676C48.3915 411.476 48.5681 411.315 48.7862 411.315L532.414 411.681C532.632 411.681 532.808 411.842 532.808 412.042C532.808 412.241 532.632 412.402 532.414 412.402Z" fill="#292A2E"/>
</g>
<defs>
<clipPath id="clip0_58_177">
<rect width="542" height="412" fill="white" transform="translate(0.311523) rotate(0.0432827)"/>
</clipPath>
</defs>
</svg>
