<svg width="364" height="395" viewBox="0 0 364 395" fill="none" xmlns="http://www.w3.org/2000/svg">
<mask id="mask0_85_532" style="mask-type:luminance" maskUnits="userSpaceOnUse" x="0" y="0" width="364" height="395">
<path d="M0.437073 0H364V394.864H0.437073V0Z" fill="white"/>
</mask>
<g mask="url(#mask0_85_532)">
<path d="M326.553 251.134C326.553 251.134 330.359 233.324 333.413 220.415C329.282 219.949 325.862 220.194 321.74 219.706C321.66 221.612 320.91 223.495 319.961 225.183C318.73 225.208 317.498 225.174 316.11 224.918C307.409 224.27 306.506 224.714 297.781 224.801C297.151 231.15 297.795 237.55 298.439 243.898C298.458 244.091 298.482 244.295 298.598 244.451C298.758 244.667 299.046 244.733 299.31 244.784C300.78 245.069 302.249 245.354 303.719 245.639C313.04 247.447 326.553 251.134 326.553 251.134V251.134Z" fill="white" stroke="#010101" stroke-width="1.5" stroke-linecap="round" stroke-linejoin="round"/>
<path d="M72.7686 33.6279C73.6507 47.5165 73.8512 61.4486 73.3685 75.3573C84.1062 76.4385 94.9163 76.8027 105.702 76.4446C106.887 64.5571 105.478 45.0929 106.372 36.1231C106.456 35.2836 81.9684 33.5161 72.7686 33.6279Z" fill="white" stroke="#010101" stroke-width="1.5" stroke-linecap="round" stroke-linejoin="round"/>
<path d="M66.8112 92.91C67.4916 92.3784 68.4334 93.0828 68.9784 93.7522C70.8145 96.0051 70.9526 96.3037 72.2973 98.8792C70.5008 95.3068 70.1737 93.8741 68.3778 90.3024C68.1841 89.9167 67.985 89.4842 68.105 89.0698C68.2933 88.4184 69.1983 88.2256 69.8036 88.5322C70.409 88.8389 70.7763 89.4608 71.1101 90.0513C72.8892 93.1932 73.4342 94.5637 75.2053 97.7096C73.5636 94.4981 72.9342 93.1952 72.2893 91.8201C71.1644 89.4193 69.6924 86.6021 71.5486 86.0022C72.355 85.8462 72.9791 86.6717 73.3746 87.3907C75.3561 90.9933 76.2826 93.4905 77.4604 96.5427C76.8256 94.7498 75.9098 91.9493 74.8031 89.2727C74.5484 88.6567 74.2889 88.0047 74.3774 87.3439C74.4666 86.6831 75.0444 86.039 75.7054 86.1301C76.3509 86.2191 76.7136 86.9 76.9717 87.4972C78.5678 91.1874 79.5793 93.7281 80.9187 96.9136C80.6432 95.517 80.2946 91.3829 81.7225 91.0502C82.7253 90.8165 82.9519 91.8141 83.2234 92.746C84.5004 97.1332 85.457 99.8165 87.1489 105.752C87.1489 105.752 102.086 130.92 110.826 144.998C115.164 144.447 123.427 143.343 127.798 143.244C133.036 143.127 132.3 155.493 130.376 164.12C130.267 164.615 130.133 165.129 129.789 165.5C129.384 165.937 128.765 166.093 128.182 166.223C121.585 167.707 114.877 168.701 108.133 169.195C105.881 169.359 103.509 169.447 101.483 168.449C98.6763 167.068 97.2189 163.981 95.9674 161.116C93.1613 154.693 79.7563 121.391 75.6182 109.997C72.6841 104.917 69.9551 100.689 66.8977 95.0959C66.5149 94.3963 66.1831 93.4008 66.8119 92.9094L66.8112 92.91Z" fill="white" stroke="#010101" stroke-width="1.5" stroke-linecap="round" stroke-linejoin="round"/>
<path d="M232.245 196.882C234.649 201.437 238.005 205.464 241.48 209.267C251.345 203.384 260.692 198.18 270.245 191.803C273.798 189.431 277.081 187.068 280.773 185.391L280.772 185.388C285.942 182.743 292.744 179.923 298.484 177.316C300.323 176.481 300.743 178.209 300.064 178.989C298.47 180.822 297.215 181.401 294.526 182.662C299.395 181.045 301.42 180.451 306.289 178.833C306.904 178.628 307.651 178.446 308.134 178.862C308.629 179.288 308.517 180.139 308.078 180.641C307.639 181.143 306.982 181.383 306.354 181.602C303.628 182.557 300.98 183.527 299.223 184.244C302.276 183.094 304.984 182.214 308.969 181.292C309.765 181.108 310.923 180.957 311.326 181.654C312.072 183.417 308.59 184.377 306.06 185.136C304.611 185.57 303.226 185.967 299.753 186.881C303.26 186.106 304.641 185.602 308.151 184.835C308.81 184.691 309.514 184.55 310.135 184.793C310.756 185.036 311.194 185.829 310.827 186.399C310.593 186.761 310.139 186.9 309.725 187.012C305.881 188.05 304.594 188.756 300.75 189.794C303.553 189.082 303.866 188.986 306.744 188.85C307.599 188.809 308.736 189.036 308.775 189.888C308.812 190.675 307.85 191.088 307.077 191.269C299.472 193.049 299.592 192.56 291.988 194.339C291.988 194.339 260.953 220.915 248.254 228.017C244.699 230.005 240.939 231.875 236.879 232.227C232.819 232.577 228.364 231.098 225.728 227.673C223.625 225.528 221.521 223.384 219.417 221.24C217.378 219.161 213.989 215.104 213.572 212.225C213.141 209.244 228.502 195.75 232.245 196.882Z" fill="white" stroke="#010101" stroke-width="1.5" stroke-linecap="round" stroke-linejoin="round"/>
<path d="M121.957 331.061C119.348 331.071 114.238 330.726 111.629 330.736C110.985 330.739 110.319 330.746 109.735 331.015C109.351 331.192 109.027 331.471 108.707 331.747C103.39 336.34 99.0623 342.411 93.6633 346.947C93.0318 347.477 92.0752 346.991 92.1329 346.169C94.3785 314.239 95.2694 312.043 96.4519 311.737C98.3698 311.241 100.308 310.822 102.259 310.482C100.341 309.187 99.016 308.421 97.0975 307.127C95.9465 306.349 95.7963 307.029 98.5133 296.079C98.6433 295.553 99.1823 295.234 99.7038 295.382C105.459 297.008 120.412 300.19 122.895 301.239C123.172 301.356 123.462 301.495 123.615 301.755C123.763 302.006 123.749 302.318 123.732 302.609C123.117 312.636 123.579 321.243 121.957 331.061Z" fill="#010101" stroke="#010101" stroke-width="1.5" stroke-linecap="round" stroke-linejoin="round"/>
<path d="M175.268 362.53C174.312 364.955 173.356 367.38 172.4 369.805C172.164 370.403 171.925 371.024 171.959 371.666C171.981 372.087 172.121 372.491 172.259 372.889C174.565 379.522 176.433 386.447 178.655 393.135C178.915 393.917 178.109 394.624 177.365 394.267C148.493 380.37 146.781 378.732 146.934 377.522C147.182 375.559 147.509 373.606 147.914 371.669C146 372.97 144.797 373.916 142.883 375.217C141.735 375.998 142.312 376.389 133.13 369.816C132.689 369.501 132.592 368.883 132.922 368.454C136.564 363.716 145.056 351.018 146.95 349.102C147.162 348.889 147.399 348.671 147.696 348.626C147.985 348.581 148.27 348.709 148.534 348.833C157.634 353.113 166.736 357.393 175.268 362.53Z" fill="#010101" stroke="#010101" stroke-width="1.5" stroke-linecap="round" stroke-linejoin="round"/>
<path d="M191.714 250.358C201.673 256.048 212.171 262.245 220.742 269.863C223.899 272.669 226.863 275.746 229.097 279.33C234.631 288.205 235.121 299.79 231.168 309.47C227.216 319.151 219.127 326.888 209.625 331.274C205.58 333.141 201.296 334.436 196.993 335.592C172.205 342.247 146.213 344.407 120.629 342.569C120.644 339.113 120.379 335.655 119.838 330.683C118.358 320.376 117.604 309.559 119.157 293.211C135.416 294.926 151.854 296.641 168.068 294.548C172.539 293.971 177.299 292.933 180.359 289.627C182.022 287.83 183.014 285.53 183.974 283.279C188.273 273.204 192.204 262.07 191.715 250.358H191.714Z" fill="#75CBE2" stroke="#010101" stroke-width="1.5" stroke-linecap="round" stroke-linejoin="round"/>
<path d="M170.127 300.706C153.399 303.073 136.29 302.735 119.669 299.711" stroke="#010101" stroke-width="1.5" stroke-linecap="round" stroke-linejoin="round"/>
<path d="M37.4922 247.354C33.6678 240.218 27.5442 234.333 20.2561 230.793C17.8697 229.634 15.1313 228.709 12.5987 229.501C10.0353 230.302 8.25421 232.757 7.57917 235.354C6.90413 237.951 7.1622 240.692 7.5376 243.349C9.42933 256.738 14.1493 269.551 19.1608 282.113C31.1916 282.151 52.089 283.399 54.0297 283.268C54.8844 283.21 41.6765 255.837 37.4915 247.354L37.4922 247.354Z" fill="#55D087" stroke="#010101" stroke-width="1.5" stroke-linecap="round" stroke-linejoin="round"/>
<path d="M217.935 115.987L218.776 133.723L208.987 156.872L202.233 170.407L183.634 183.848L159.003 175.448L160.081 153.792L179.522 121.122L198.121 111.694L217.935 115.987Z" fill="white" stroke="#010101" stroke-width="1.5" stroke-linecap="round" stroke-linejoin="round"/>
<path d="M224.22 136.855C224.369 137.214 224.62 137.526 224.744 137.895C224.868 138.263 224.819 138.741 224.484 138.94C224.339 139.027 223.698 139.071 223.51 140.011C223.418 140.475 224.03 140.985 224.03 141.458C224.03 142.468 223.168 142.631 223.168 143.763C223.168 144.368 223.8 144.855 223.487 146.093C223.256 147.003 222.791 147.324 222.697 147.801C222.566 148.468 223.284 149.107 223.101 149.763C222.907 150.456 221.882 150.581 221.581 151.236C221.263 151.929 221.872 152.957 221.262 153.415C221.049 153.574 220.755 153.585 220.537 153.737C219.965 154.133 220.316 155.003 220.417 155.691C220.546 156.565 220.099 157.497 219.531 157.997C218.508 158.728 217.851 159.947 217.804 161.202C217.787 161.676 217.832 162.207 217.52 162.565C217.097 163.048 216.262 162.925 215.798 163.371C215.414 163.74 215.428 164.349 215.221 164.841C214.918 165.559 214.171 165.967 213.722 166.488C212.825 167.295 211.42 166.734 210.35 166.177C204.535 163.157 198.168 161.181 192.733 157.374C194.205 154.043 195.676 150.711 197.157 147.281C199.365 148.668 202.244 148.756 204.688 147.846C207.132 146.937 209.163 145.12 210.678 143C212.194 140.88 215.852 129.591 216.123 123.269C214.174 122.62 213.102 119.644 213.596 117.651C212.242 118.631 210.339 118.794 208.837 118.059C209.083 119.982 206.708 121.177 204.767 121.191C204.25 121.195 203.656 121.19 203.314 121.578C203.05 121.878 203.03 122.316 202.867 122.681C202.519 123.46 201.608 123.782 200.803 124.066C198.16 124.997 195.672 126.365 193.472 128.096C193.952 126.631 192.689 124.981 191.162 124.751C189.636 124.521 188.102 125.458 187.276 126.76C186.342 128.23 186.193 130.168 186.89 131.764C187.587 133.36 189.111 134.568 190.826 134.884C189.102 136.97 187.607 139.244 186.379 141.654C186.112 142.177 185.856 142.711 185.72 143.283C185.474 144.316 185.6 145.503 184.929 146.327C184.708 146.601 184.414 146.808 184.187 147.077C183.894 147.427 183.729 147.863 183.569 148.29C182.504 151.124 181.44 153.957 180.376 156.791C180.006 157.774 179.618 158.788 178.887 159.543C177.269 161.212 174.259 161.343 173.232 163.427C172.222 163.385 171.415 162.255 171.703 161.288C172.277 161.397 172.579 160.603 172.497 160.025C172.415 159.447 172.215 158.772 172.614 158.345C172.85 158.092 173.261 157.99 173.375 157.663C173.501 157.302 173.178 156.957 173.058 156.595C172.868 156.024 173.196 155.426 173.436 154.873C174.243 153.018 174.109 150.907 173.959 148.889C173.923 148.4 173.873 147.874 173.555 147.5C172.889 146.716 171.626 147.104 170.699 147.553C163.567 143.981 158.014 141.673 151.421 140.682C152.123 140.399 153.378 139.69 153.884 139.128C154.389 138.565 154.598 137.127 154.15 136.518C154.946 137.055 155.805 135.788 155.69 134.835C155.575 133.882 155.139 132.8 155.737 132.049C156.506 131.083 158.365 131.563 158.989 130.498C159.587 129.478 158.418 128.034 159.079 127.055C159.65 126.212 161.138 126.437 161.67 125.569C162.252 124.623 161.263 123.037 162.19 122.424C162.476 122.234 162.849 122.239 163.159 122.091C164.435 121.482 163.75 118.987 165.094 118.547C165.655 118.363 166.31 118.691 166.843 118.437C167.851 117.958 167.303 116.105 168.276 115.559C168.916 115.199 169.774 115.695 170.437 115.381C171.217 115.011 171.183 113.842 171.805 113.244C172.639 112.44 174.128 113.057 175.121 112.461C175.931 111.974 176.137 110.848 176.897 110.286C177.285 109.999 177.775 109.892 178.202 109.666C179.043 109.222 179.567 108.366 180.176 107.635C183.402 103.767 188.936 101.382 193.974 101.502C196.59 101.565 199.381 103.647 201.989 103.844C204.435 104.028 207.265 104.513 208.436 106.665C210.277 105.154 213.039 105.991 215.164 107.071C216.458 107.729 217.731 108.462 218.791 109.455C221.612 112.096 222.528 116.134 223.306 119.917C223.45 120.622 223.596 121.332 223.601 122.051C223.604 122.552 223.538 123.053 223.539 123.554C223.54 124.15 223.635 124.742 223.778 125.492C223.875 126.421 224.14 127.334 224.556 128.172C224.817 128.698 225.145 129.281 224.951 129.834C224.801 130.263 224.365 130.548 224.23 130.982C224.056 131.536 224.421 132.096 224.695 132.608C224.968 133.12 225.123 133.847 224.667 134.208C224.539 134.309 224.379 134.364 224.259 134.473C223.933 134.773 224.049 135.302 224.175 135.725C224.301 136.149 224.368 136.701 224.22 136.856V136.855Z" fill="#010101" stroke="#010101" stroke-width="1.5" stroke-linecap="round" stroke-linejoin="round"/>
<path d="M116.608 207.328C136.516 218.239 154.952 228.72 174.734 239.562C177.995 241.349 184.218 245.42 188.302 248.122C195.077 252.603 200.781 255.888 204.8 262.941C210.439 272.841 209.392 285.09 207.366 296.299C202.85 321.271 194.339 345.336 185.213 369.019C170.359 362.504 153.37 354.923 138.516 348.407C149.815 326.942 160.001 304.544 170.736 278.036C156.374 271.737 141.721 265.438 132.533 260.422C123.458 255.467 109.586 245.31 109.499 230.124C109.449 221.468 112.337 214.642 116.608 207.328H116.608Z" fill="#75CBE2" stroke="#010101" stroke-width="1.5" stroke-linecap="round" stroke-linejoin="round"/>
<path d="M151.833 353.291C158.955 326.487 167.573 300.079 177.637 274.233C164.651 266.748 151.665 259.263 138.679 251.778C133.987 249.074 129.154 246.246 125.963 241.874C121.439 235.677 120.462 227.029 123.15 219.844C123.881 217.892 124.638 216.205 126.02 212.511" stroke="#010101" stroke-width="1.5" stroke-linecap="round" stroke-linejoin="round"/>
<path d="M133.638 217.091C132.974 219.272 130.356 224.649 125.926 225.599C124.8 225.841 123.255 225.86 121.958 225.751" stroke="#010101" stroke-width="1.5" stroke-linecap="round" stroke-linejoin="round"/>
<path d="M54.0301 283.267C47.7811 271.363 41.7339 257.031 36.7491 244.546C34.6147 239.199 32.5648 233.596 32.9523 227.853C33.2345 223.669 35.2918 219.15 39.2757 217.823C42.002 216.915 45.0119 217.703 47.6175 218.914C53.0688 221.448 57.5045 225.722 61.5467 230.167C75.0221 244.985 85.3609 262.635 91.2305 283.241C78.1506 283.359 67.8333 283.398 54.0301 283.267Z" fill="#55D087" stroke="#010101" stroke-width="1.5" stroke-linecap="round" stroke-linejoin="round"/>
<path d="M38.1309 282.621C32.0602 264.467 23.9067 247.008 13.8796 230.697" stroke="#010101" stroke-width="1.5" stroke-linecap="round" stroke-linejoin="round"/>
<path d="M30.1885 261.949C23.7846 259.38 16.7547 257.124 10.3508 254.555" stroke="#010101" stroke-width="1.5" stroke-linecap="round" stroke-linejoin="round"/>
<path d="M43.6719 261.949C40.4891 265.816 38.2099 269.239 35.027 273.106" stroke="#010101" stroke-width="1.5" stroke-linecap="round" stroke-linejoin="round"/>
<path d="M73.6113 283.256C61.9627 263.063 49.5257 241.505 37.8777 221.312" stroke="#010101" stroke-width="1.5" stroke-linecap="round" stroke-linejoin="round"/>
<path d="M54.0303 224.357C52.9772 230.065 51.6814 235.729 50.1489 241.328" stroke="#010101" stroke-width="1.5" stroke-linecap="round" stroke-linejoin="round"/>
<path d="M60.752 230.421C59.4635 237.316 57.6241 245.829 55.9502 252.641" stroke="#010101" stroke-width="1.5" stroke-linecap="round" stroke-linejoin="round"/>
<path d="M61.2471 262.441C54.4906 260.159 47.9346 257.287 41.6769 253.869" stroke="#010101" stroke-width="1.5" stroke-linecap="round" stroke-linejoin="round"/>
<path d="M84.5625 264.683C80.9969 270.595 77.186 276.359 73.1431 281.957" stroke="#010101" stroke-width="1.5" stroke-linecap="round" stroke-linejoin="round"/>
<path d="M232.256 196.468C226.097 187.395 222.827 182.496 218.246 175.634C214.383 169.847 207.387 163.586 199.284 161.641C195.141 166.157 191.983 171.729 186.859 175.095C182.616 177.883 177.227 178.867 171.867 177.334C168.516 175.88 166.362 172.389 165.75 168.791C165.137 165.193 165.863 161.495 166.962 158.014C168.062 154.533 169.535 151.173 170.574 147.812C161.889 142.343 156.408 140.846 150.967 140.662C144.195 140.432 133.727 141.451 125.796 142.667C125.857 150.553 126.913 159.324 127.767 167.574C132.63 166.829 137.529 166.314 142.588 166.195C135.62 180.88 125.9 194.082 116.608 207.327C138.332 218.828 152.768 227.932 174.734 239.561C183.172 224.527 191.633 208.986 199.099 192.639C203.616 202.207 209.134 209.653 214.695 218.51C221.973 213.121 227.533 206.273 232.256 196.468Z" fill="#6C81B2" stroke="#010101" stroke-width="1.5" stroke-linecap="round" stroke-linejoin="round"/>
<path d="M172.294 177.398C163.849 192.931 154.984 208.237 145.713 223.293" stroke="#010101" stroke-width="1.5" stroke-linecap="round" stroke-linejoin="round"/>
<path d="M363.497 97.3695C362.43 118.355 361.363 139.339 360.295 160.324C334.056 159.699 310.064 158.491 283.93 156.07C286.784 134.59 284.958 96.1745 285.9 94.954C308.985 94.954 334.926 95.1488 363.497 97.3695Z" fill="#E3E3FF" stroke="#010101" stroke-width="1.5" stroke-linecap="round" stroke-linejoin="round"/>
<path d="M320.663 135.699C324.826 128.928 329.935 122.738 335.796 117.365C341.409 125.748 346.644 134.384 350.928 143.186C341.868 143.577 331.24 143.099 323.771 142.668C323.397 140.825 322.7 139.047 320.663 135.699Z" fill="#75CBE2" stroke="#010101" stroke-width="1.5" stroke-linecap="round" stroke-linejoin="round"/>
<path d="M331.084 143.038C324.996 133.169 319.99 123.97 313.278 114.513C306.246 122.962 298.153 132.028 291.435 141.3C295.679 141.68 318.237 142.581 331.084 143.038Z" fill="white" stroke="#010101" stroke-width="1.5" stroke-linecap="round" stroke-linejoin="round"/>
<path d="M329.805 111.744C329.349 112.955 326.443 115.072 323.955 112.505C322.824 111.337 322.851 109.491 323.558 108.026C324.896 105.254 331.953 106.049 329.805 111.744Z" fill="white" stroke="#010101" stroke-width="1.5" stroke-linecap="round" stroke-linejoin="round"/>
<path d="M315.342 133.672C314.864 138.346 314.387 143.019 313.91 147.693C312.65 147.045 311.39 146.398 310.13 145.75C309.508 147.422 308.792 149.06 307.988 150.654C307.015 149.793 305.831 149.172 304.569 148.86C305.515 147.577 306.341 146.208 307.034 144.773C305.59 144.015 304.178 143.194 302.805 142.312C305.918 139.448 309.288 136.861 312.862 134.595C313.882 133.949 314.943 133.306 315.671 132.344C315.609 132.67 315.414 132.969 315.342 133.671L315.342 133.672Z" fill="#010101" stroke="#010101" stroke-width="1.5" stroke-linecap="round" stroke-linejoin="round"/>
<path d="M330.72 68.5238C332.823 64.8684 335.002 60.8447 334.371 56.6765C333.864 53.3344 331.577 50.4857 328.866 48.4632C327.461 47.4154 325.87 46.525 324.128 46.3235C322.387 46.1219 320.472 46.7265 319.471 48.1646C318.47 49.6026 318.721 51.8836 320.219 52.7948C321.606 53.6377 323.57 53.0244 324.503 51.6975C325.435 50.3705 325.448 48.5522 324.857 47.0418C324.266 45.5314 323.151 44.2849 321.947 43.1969C319.455 40.9441 316.307 39.1719 312.946 39.2034" stroke="#010101" stroke-width="1.5" stroke-linecap="round" stroke-linejoin="round"/>
<path d="M286.799 2.72483C285.973 19.3409 285.147 35.9571 284.322 52.5732C284.288 53.2427 284.239 53.9583 283.831 54.4913C283.367 55.0992 282.56 55.3127 281.812 55.4747C274.707 57.0126 267.396 57.2984 260.127 57.4317C247.336 57.666 234.54 57.445 221.748 57.2241C207.2 56.9724 192.653 56.7213 178.105 56.4696C169.196 56.3156 160.269 56.1603 151.423 55.0978C151.971 37.4011 152.519 19.7045 153.067 2.0078C159.06 0.584462 165.283 0.531572 171.443 0.512827C211.742 0.388971 252.044 1.3979 286.8 2.7255L286.799 2.72483Z" fill="#E3E3FF" stroke="#010101" stroke-width="1.5" stroke-linecap="round" stroke-linejoin="round"/>
<path d="M276.269 14.3405C275.543 24.2805 274.817 34.2204 274.091 44.1603C260.247 43.6422 249.601 43.7433 237.183 42.6794C237.642 33.2034 238.464 23.7442 239.65 14.3312C251.626 14.3312 263.786 13.8725 276.27 14.3399L276.269 14.3405Z" fill="white" stroke="#010101" stroke-width="1.5" stroke-linecap="round" stroke-linejoin="round"/>
<path d="M273.479 43.4533C262.3 33.885 251.123 24.3159 239.945 14.7476" stroke="#010101" stroke-width="1.5" stroke-linecap="round" stroke-linejoin="round"/>
<path d="M275.946 14.8004C264.092 24.8756 251.418 33.9867 238.088 42.0139" stroke="#010101" stroke-width="1.5" stroke-linecap="round" stroke-linejoin="round"/>
<path d="M225.472 16.201C206.43 14.5426 187.32 13.675 168.207 13.6006L225.472 16.201Z" fill="white"/>
<path d="M225.472 16.201C206.43 14.5426 187.32 13.675 168.207 13.6006" stroke="#010101" stroke-width="1.5" stroke-linecap="round" stroke-linejoin="round"/>
<path d="M224.21 27.2584C204.468 26.234 184.714 25.4387 164.954 24.8723L224.21 27.2584Z" fill="white"/>
<path d="M224.21 27.2584C204.468 26.234 184.714 25.4387 164.954 24.8723" stroke="#010101" stroke-width="1.5" stroke-linecap="round" stroke-linejoin="round"/>
<path d="M224.213 37.9146C218.757 38.2648 213.267 38.0941 207.843 37.4065L224.213 37.9146Z" fill="white"/>
<path d="M224.213 37.9146C218.757 38.2648 213.267 38.0941 207.843 37.4065" stroke="#010101" stroke-width="1.5" stroke-linecap="round" stroke-linejoin="round"/>
<path d="M71.393 153.285L72.3623 183.013L32.9042 182.418L32.3102 152.789L71.393 153.285Z" fill="#E3E3FF" stroke="#010101" stroke-width="1.5" stroke-linecap="round" stroke-linejoin="round"/>
<path d="M47.2817 173.168H64.9648L64.6873 161.372H47.0042L47.2817 173.168Z" fill="#75CBE2" stroke="#010101" stroke-width="1.5" stroke-linecap="round" stroke-linejoin="round"/>
<path d="M47.0762 165.137L39.9758 162.111V171.763L47.0044 168.936L47.0762 165.137Z" fill="#75CBE2" stroke="#010101" stroke-width="1.5" stroke-linecap="round" stroke-linejoin="round"/>
<path d="M78.4391 71.0706C77.8438 57.7865 77.8908 42.7069 77.9377 29.4101C86.6985 29.0245 95.7154 29.2655 104.707 29.8828C108.069 32.2896 110.95 35.6451 113.136 39.2255C112.918 50.076 113.056 60.9257 112.471 71.7702C101.998 72.1049 78.4579 71.4769 78.4398 71.0706H78.4391Z" fill="white" stroke="#010101" stroke-width="1.5" stroke-linecap="round" stroke-linejoin="round"/>
<path d="M112.629 39.0668C109.695 38.9256 106.769 38.6384 103.864 38.2079C104.296 35.6511 104.555 33.0648 104.637 30.4732" fill="white"/>
<path d="M112.629 39.0668C109.695 38.9256 106.769 38.6384 103.864 38.2079C104.296 35.6511 104.555 33.0648 104.637 30.4732" stroke="#010101" stroke-width="1.5" stroke-linecap="round" stroke-linejoin="round"/>
<path d="M107.575 42.8943C100.077 42.4243 92.5647 42.1766 85.0515 42.1518L107.575 42.8943Z" fill="white"/>
<path d="M107.575 42.8943C100.077 42.4243 92.5647 42.1766 85.0515 42.1518" stroke="#010101" stroke-width="1.5" stroke-linecap="round" stroke-linejoin="round"/>
<path d="M107.206 49.4058C99.4535 48.6781 91.6761 48.2141 83.8926 48.0146L107.206 49.4058Z" fill="white"/>
<path d="M107.206 49.4058C99.4535 48.6781 91.6761 48.2141 83.8926 48.0146" stroke="#010101" stroke-width="1.5" stroke-linecap="round" stroke-linejoin="round"/>
<path d="M106.975 54.7798C99.4553 54.7724 91.9367 54.4665 84.4415 53.8633L106.975 54.7798Z" fill="white"/>
<path d="M106.975 54.7798C99.4553 54.7724 91.9367 54.4665 84.4415 53.8633" stroke="#010101" stroke-width="1.5" stroke-linecap="round" stroke-linejoin="round"/>
<path d="M106.372 61.9072C103.453 61.7793 100.533 61.6515 97.6133 61.5229L106.372 61.9072Z" fill="white"/>
<path d="M106.372 61.9072C103.453 61.7793 100.533 61.6515 97.6133 61.5229" stroke="#010101" stroke-width="1.5" stroke-linecap="round" stroke-linejoin="round"/>
<path d="M197.37 147.643C196.107 146.858 194.905 145.972 193.782 144.998L197.37 147.643Z" fill="white"/>
<path d="M197.37 147.643C196.107 146.858 194.905 145.972 193.782 144.998" stroke="#010101" stroke-width="1.5" stroke-linecap="round" stroke-linejoin="round"/>
<path d="M209.517 131.931C209.594 133.566 209.669 135.202 209.746 136.837C209.76 137.142 209.751 137.499 209.506 137.681C209.301 137.832 209.017 137.794 208.768 137.743C207.997 137.585 207.238 137.37 206.499 137.1" fill="white"/>
<path d="M209.517 131.931C209.594 133.566 209.669 135.202 209.746 136.837C209.76 137.142 209.751 137.499 209.506 137.681C209.301 137.832 209.017 137.794 208.768 137.743C207.997 137.585 207.238 137.37 206.499 137.1" stroke="#010101" stroke-width="1.5" stroke-linecap="round" stroke-linejoin="round"/>
<path d="M98.8975 283.349C65.3089 283.349 45.4015 282.959 9.52373 281.977" stroke="#010101" stroke-width="1.5" stroke-linecap="round" stroke-linejoin="round"/>
<path d="M80.9189 96.9123L81.2607 99.0613" stroke="#010101" stroke-width="1.5" stroke-linecap="round" stroke-linejoin="round"/>
<path d="M294.71 238.797C296.14 228.143 298.338 216.152 300.281 205.579C307.307 206.524 314.446 208.004 321.511 209.78C323.842 212.176 325.653 215.258 326.879 218.419C325.151 227.021 323.706 235.673 321.687 244.218C313.306 242.987 294.667 239.124 294.71 238.797Z" fill="white" stroke="#010101" stroke-width="1.5" stroke-linecap="round" stroke-linejoin="round"/>
<path d="M326.498 218.221C324.184 217.689 321.897 217.042 319.647 216.285C320.358 214.312 320.933 212.292 321.371 210.241" fill="white"/>
<path d="M326.498 218.221C324.184 217.689 321.897 217.042 319.647 216.285C320.358 214.312 320.933 212.292 321.371 210.241" stroke="#010101" stroke-width="1.5" stroke-linecap="round" stroke-linejoin="round"/>
<path d="M315.212 227.047C303.528 226.759 301.798 226.653 290.507 227.073C292.21 235.356 292.24 242.833 295.093 250.914C307.668 250.282 326.145 251.181 326.145 251.181C326.145 251.181 327.135 232.302 327.861 222.98C324.19 222.583 320.408 222.517 316.754 222.856C316.073 224.384 315.472 226.125 315.212 227.046V227.047Z" fill="#E3E3FF" stroke="#010101" stroke-width="1.5" stroke-linecap="round" stroke-linejoin="round"/>
<path d="M317.326 292.943C318.245 292.819 319.217 293.263 319.724 294.037C320.232 294.813 320.248 295.88 319.765 296.67C318.905 298.078 316.546 298.145 315.571 296.814C314.595 295.484 315.303 293.216 317.326 292.943Z" fill="#010101"/>
<path d="M1.68819 195.429C2.21307 195.358 2.7688 195.611 3.05839 196.055C3.34798 196.498 3.35739 197.108 3.08188 197.559C2.59051 198.364 1.2424 198.401 0.684671 197.641C0.12694 196.881 0.531167 195.585 1.68819 195.429Z" fill="#010101"/>
<path d="M140.669 90.765C142.019 90.5829 143.448 91.235 144.193 92.3744C144.939 93.5139 144.963 95.0825 144.254 96.2441C142.99 98.3135 139.524 98.4106 138.089 96.455C136.655 94.5001 137.695 91.1667 140.669 90.765Z" fill="#010101"/>
<path d="M47.9268 115.402C46.9125 114.568 45.8976 113.735 44.8834 112.901C45.0087 112.972 45.1334 113.042 47.9268 115.402Z" stroke="#010101" stroke-width="1.5" stroke-linecap="round" stroke-linejoin="round"/>
<path d="M28.3633 305.871C27.1734 306.148 25.9842 306.426 24.7943 306.703" stroke="#010101" stroke-width="1.5" stroke-linecap="round" stroke-linejoin="round"/>
<path d="M261.972 258.699C261.136 257.808 260.301 256.919 259.466 256.028" stroke="#010101" stroke-width="1.5" stroke-linecap="round" stroke-linejoin="round"/>
<path d="M263.869 87.2856C264.394 87.2147 264.949 87.4684 265.239 87.9116C265.529 88.3548 265.538 88.9647 265.263 89.416C264.771 90.2207 263.423 90.2582 262.865 89.4983C262.308 88.7378 262.712 87.4423 263.869 87.2856Z" fill="#010101"/>
</g>
</svg>
