<svg width="311" height="314" viewBox="0 0 311 314" fill="none" xmlns="http://www.w3.org/2000/svg">
<g clip-path="url(#clip0_85_304)">
<path d="M58.8851 40.6497C70.1273 40.6497 79.241 31.5499 79.241 20.3248C79.241 9.09974 70.1273 0 58.8851 0C47.6429 0 38.5293 9.09974 38.5293 20.3248C38.5293 31.5499 47.6429 40.6497 58.8851 40.6497Z" fill="#FF6584"/>
<path d="M81.7918 149.92C73.837 149.92 66.1437 147.084 60.0981 141.922C58.0803 140.198 55.9323 137.202 53.7115 133.016C52.2941 130.32 51.5002 127.341 51.3883 124.298C51.2763 121.255 51.8492 118.225 53.0646 115.432C51.893 116.622 50.5971 117.684 49.1991 118.598L48.4925 119.068L48.4513 118.222C48.4245 117.672 48.4101 117.123 48.4101 116.591C48.4101 113.46 50.782 110.283 49.6867 107.388C45.0746 95.1894 30.4521 83.0661 51.6464 64.1861C53.6069 62.4395 50.9875 58.9479 50.9875 56.3053C50.9875 30.4091 79.1674 -8.43715 98.0322 9.34132C109.044 19.7188 131.985 27.0906 142.697 41.525L142.839 41.9527L142.421 42.1216C140.282 43.0198 138.029 43.6187 135.726 43.9016C138.182 44.4019 140.689 44.6116 143.195 44.5266L143.583 44.513L143.678 44.89C144.61 48.6242 145.081 52.4582 145.08 56.3065V56.7226C145.072 59.6452 145.68 62.5367 146.866 65.2088C148.051 67.881 149.787 70.2737 151.961 72.231C155.395 75.3575 158.139 79.164 160.019 83.4081C161.898 87.6521 162.871 92.2406 162.876 96.8809C162.876 102.371 159.139 109.577 156.004 114.656C155.21 115.95 154.132 117.047 152.852 117.866C151.572 118.684 150.123 119.202 148.614 119.382C147.185 119.562 145.733 119.426 144.362 118.984C142.991 118.542 141.734 117.804 140.68 116.823C142.164 119.802 144.098 122.536 146.413 124.928L146.841 125.368L146.31 125.677C141.206 128.648 135.404 130.213 129.496 130.211H129.15C120.18 130.211 111.666 133.68 105.791 139.73C102.672 142.938 98.9422 145.493 94.821 147.243C90.6999 148.993 86.2701 149.903 81.7918 149.92Z" fill="#E6E6E6"/>
<path d="M70.0207 202.13C69.8763 202.129 69.7369 202.077 69.6279 201.983C69.5189 201.888 69.4477 201.757 69.4273 201.615C69.4018 201.436 66.9038 183.447 69.1473 159.538C71.2194 137.458 77.8732 105.654 97.8057 79.535C97.9034 79.4119 98.0455 79.332 98.2015 79.3124C98.3576 79.2929 98.5151 79.3352 98.6402 79.4304C98.7653 79.5256 98.848 79.666 98.8705 79.8214C98.8931 79.9768 98.8536 80.1349 98.7606 80.2615C79.0003 106.155 72.4 137.726 70.3411 159.65C68.1104 183.419 70.5881 201.269 70.6145 201.446C70.6265 201.531 70.6201 201.617 70.5957 201.7C70.5713 201.782 70.5295 201.858 70.4731 201.923C70.4167 201.988 70.347 202.04 70.2687 202.076C70.1905 202.111 70.1055 202.13 70.0195 202.13H70.0207Z" fill="#CCCCCC"/>
<path d="M88.2206 115.717C88.0938 115.717 87.9703 115.677 87.8677 115.603C87.7652 115.528 87.6888 115.423 87.6496 115.303C87.6104 115.183 87.6103 115.053 87.6494 114.932C87.6885 114.812 87.7648 114.707 87.8673 114.633C93.5469 110.794 99.6825 107.675 106.133 105.349C116.21 101.665 131.535 98.325 147.312 103.338C147.389 103.361 147.461 103.398 147.523 103.449C147.585 103.499 147.636 103.562 147.673 103.632C147.711 103.703 147.734 103.78 147.741 103.86C147.748 103.939 147.74 104.019 147.715 104.095C147.691 104.171 147.652 104.242 147.6 104.303C147.548 104.363 147.484 104.413 147.413 104.449C147.342 104.485 147.264 104.506 147.184 104.512C147.104 104.517 147.024 104.506 146.948 104.481C131.495 99.5704 116.449 102.855 106.547 106.474C100.2 108.761 94.1631 111.827 88.5744 115.602C88.4717 115.677 88.3477 115.717 88.2206 115.717Z" fill="#CCCCCC"/>
<path d="M60.3346 44.9237C60.3254 44.7975 60.3565 44.6717 60.4234 44.5642C60.4903 44.4567 60.5895 44.3731 60.7069 44.3253C60.8243 44.2776 60.9538 44.2682 61.0769 44.2984C61.1999 44.3286 61.3103 44.397 61.3921 44.4937C65.6355 49.8735 69.1926 55.7593 71.9814 62.0156C76.3876 71.7861 80.8267 86.809 76.9546 102.879C76.938 102.957 76.9058 103.032 76.8599 103.097C76.8141 103.163 76.7555 103.219 76.6877 103.262C76.6198 103.305 76.5441 103.333 76.4649 103.346C76.3857 103.359 76.3048 103.356 76.2268 103.338C76.1488 103.319 76.0753 103.285 76.0108 103.237C75.9462 103.19 75.8918 103.13 75.8509 103.061C75.81 102.992 75.7833 102.915 75.7724 102.836C75.7615 102.757 75.7667 102.676 75.7876 102.599C79.5798 86.8559 75.2152 72.1077 70.8872 62.5073C68.1456 56.3514 64.6479 50.5598 60.4746 45.2658C60.3928 45.1695 60.3438 45.0497 60.3346 44.9237Z" fill="#CCCCCC"/>
<path d="M206.79 238.548C165.5 238.548 133.808 236.379 111.811 227.678C58.2329 206.486 40.0691 197.686 39.8916 197.6L40.2532 196.86C40.4302 196.946 58.578 205.736 112.114 226.912C143.87 239.473 196.12 238.353 268.438 236.802C282.008 236.511 296.041 236.21 310.986 235.971L310.999 236.793C296.057 237.033 282.025 237.333 268.455 237.624C245.959 238.109 225.399 238.548 206.79 238.548Z" fill="#CACACA"/>
<path d="M32.5381 292.502L31.9558 291.921C51.9608 271.946 59.6696 264.31 61.3032 262.694L2.35645 220.179L2.83866 219.512L62.5736 262.595L62.2277 262.937C62.163 263.002 55.3346 269.742 32.5381 292.502Z" fill="#CACACA"/>
<path d="M62.2209 314L61.6592 313.398C63.5044 311.678 106.911 271.321 115.369 271.321H115.396L309.804 273.298L309.796 274.12L115.388 272.143H115.364C107.235 272.143 62.6706 313.581 62.2209 314Z" fill="#CACACA"/>
<path d="M305.68 251.095H255.749V251.917H305.68V251.095Z" fill="#CACACA"/>
<path d="M212.202 251.095H162.271V251.917H212.202V251.095Z" fill="#CACACA"/>
<path d="M159.906 184.832H131.08V177.561H141.787C142.442 177.561 143.071 177.301 143.534 176.838C143.998 176.375 144.258 175.748 144.258 175.094V167.216C144.258 166.562 143.998 165.935 143.534 165.472C143.071 165.009 142.442 164.749 141.787 164.749H131.08V162.282C131.08 161.41 130.733 160.573 130.116 159.957C129.498 159.34 128.66 158.993 127.786 158.993C126.912 158.993 126.074 159.34 125.457 159.957C124.839 160.573 124.492 161.41 124.492 162.282V164.749H84.9207C84.4093 164.749 83.9103 164.907 83.4926 165.202L77.9227 169.143C77.6004 169.371 77.3375 169.673 77.156 170.023C76.9746 170.373 76.8799 170.762 76.8799 171.156C76.8799 171.551 76.9746 171.939 77.156 172.29C77.3375 172.64 77.6004 172.942 77.9227 173.17L83.4931 177.108C83.9106 177.403 84.4094 177.561 84.9207 177.561H124.492V184.832H95.6661C95.0108 184.832 94.3824 185.092 93.919 185.554C93.4557 186.017 93.1953 186.644 93.1953 187.299V195.176C93.1953 195.83 93.4557 196.458 93.919 196.92C94.3824 197.383 95.0108 197.643 95.6661 197.643H124.492V224.78C124.492 225.652 124.839 226.489 125.457 227.106C126.074 227.723 126.912 228.069 127.786 228.069C128.66 228.069 129.498 227.723 130.116 227.106C130.733 226.489 131.08 225.652 131.08 224.78V197.643H159.906C160.561 197.643 161.19 197.383 161.653 196.92C162.117 196.458 162.377 195.83 162.377 195.176V187.299C162.377 186.644 162.117 186.017 161.653 185.554C161.19 185.092 160.561 184.832 159.906 184.832Z" fill="#3F3D56"/>
<path d="M111.314 171.534H90.7245C90.3422 171.534 89.9756 171.382 89.7054 171.112C89.4351 170.842 89.2832 170.476 89.2832 170.095C89.2832 169.713 89.4351 169.347 89.7054 169.077C89.9756 168.807 90.3422 168.656 90.7245 168.656H111.314C111.696 168.656 112.063 168.807 112.333 169.077C112.604 169.347 112.755 169.713 112.755 170.095C112.755 170.476 112.604 170.842 112.333 171.112C112.063 171.382 111.696 171.534 111.314 171.534Z" fill="#75CBE2"/>
<path d="M136.845 192.503H116.256C115.873 192.503 115.507 192.352 115.237 192.082C114.966 191.812 114.814 191.446 114.814 191.064C114.814 190.683 114.966 190.316 115.237 190.047C115.507 189.777 115.873 189.625 116.256 189.625H136.845C137.228 189.625 137.594 189.777 137.865 190.047C138.135 190.316 138.287 190.683 138.287 191.064C138.287 191.446 138.135 191.812 137.865 192.082C137.594 192.352 137.228 192.503 136.845 192.503Z" fill="white"/>
<path d="M20.8189 218.804L2.03081 227.214C1.85809 227.291 1.67181 227.334 1.48261 227.339C1.29341 227.345 1.10499 227.313 0.928115 227.246C0.751243 227.178 0.589376 227.077 0.451758 226.947C0.31414 226.817 0.203466 226.662 0.126054 226.489C0.0486416 226.317 0.00601221 226.131 0.000591328 225.942C-0.00482955 225.753 0.0270647 225.565 0.0944603 225.388C0.161856 225.212 0.263433 225.05 0.393385 224.913C0.523336 224.775 0.679116 224.665 0.85184 224.587L19.64 216.178C19.8127 216.101 19.999 216.058 20.1882 216.053C20.3774 216.047 20.5658 216.079 20.7427 216.146C20.9195 216.214 21.0814 216.315 21.219 216.445C21.3566 216.575 21.4673 216.73 21.5447 216.903C21.6221 217.075 21.6648 217.261 21.6702 217.45C21.6756 217.639 21.6437 217.827 21.5763 218.004C21.5089 218.18 21.4073 218.342 21.2774 218.479C21.1474 218.617 20.9917 218.727 20.8189 218.804Z" fill="white"/>
<path d="M221.706 259.392C221.706 259.392 218.228 262.316 216.398 262.134C214.568 261.951 211.09 261.951 212.554 263.961C214.018 265.972 220.059 267.068 222.622 267.251C225.184 267.433 230.858 267.616 230.493 266.52C230.129 265.423 229.761 260.305 228.297 259.941C226.832 259.577 221.706 259.392 221.706 259.392Z" fill="#090814"/>
<path d="M241.669 256.521C241.669 256.521 239.106 260.272 237.293 260.586C235.481 260.901 232.131 261.835 234.081 263.379C236.032 264.923 242.147 264.358 244.664 263.846C247.182 263.334 252.697 261.987 252.05 261.029C251.402 260.071 249.671 255.24 248.163 255.281C246.654 255.321 241.669 256.521 241.669 256.521Z" fill="#090814"/>
<path d="M219.669 202.889C219.669 202.889 217.313 218.999 217.862 221.923C218.411 224.848 218.778 229.417 218.778 229.417C218.778 229.417 218.412 233.255 218.778 235.083C219.144 236.911 220.974 260.489 221.157 260.489C221.341 260.489 228.48 261.22 228.846 260.489C229.212 259.758 228.48 249.522 228.48 249.522C228.48 249.522 228.113 240.566 227.93 235.083C227.747 229.6 229.577 223.934 229.577 223.934C229.805 228.42 231.474 232.714 234.337 236.18C239.096 241.846 241.476 252.447 241.476 252.447C241.476 252.447 242.198 254.9 241.65 256.362C241.101 257.824 248.798 256.65 249.348 256.103C249.897 255.556 247.883 250.985 247.883 250.254C247.883 249.523 244.589 233.621 239.463 229.052L239.097 212.419C239.097 212.419 243.673 200.722 238.914 199.625C234.154 198.529 219.669 202.889 219.669 202.889Z" fill="#090814"/>
<path d="M222.988 159.596C222.988 159.596 226.1 167.273 225.368 168.369C224.636 169.466 234.338 164.714 234.338 164.714C234.338 164.714 231.226 157.037 231.226 156.123C231.226 155.209 222.988 159.596 222.988 159.596Z" fill="#A0616A"/>
<path d="M225.276 161.516C229.017 161.516 232.049 158.488 232.049 154.753C232.049 151.018 229.017 147.99 225.276 147.99C221.535 147.99 218.503 151.018 218.503 154.753C218.503 158.488 221.535 161.516 225.276 161.516Z" fill="#9F616A"/>
<path d="M233.003 161.677C231.919 161.536 230.817 161.674 229.801 162.078C228.784 162.481 227.888 163.137 227.197 163.983C224.817 166.907 224.451 167.639 224.451 167.639C224.451 167.639 218.777 176.778 219.875 181.347C220.143 181.76 220.387 182.187 220.607 182.627C220.973 183.358 220.973 193.593 220.607 195.238C220.241 196.883 219.875 197.432 220.241 199.808C220.607 202.184 217.314 206.022 221.159 206.754C225.005 207.487 229.395 202.551 233.424 202.551C235.89 202.507 238.246 201.527 240.013 199.809C240.013 199.809 238.732 193.046 238.366 192.132C238 191.219 241.015 176.584 238.366 170.748C235.717 164.912 234.705 163.802 234.705 163.802C234.705 163.802 234.102 161.129 233.003 161.677Z" fill="#75CBE2"/>
<path d="M223.903 178.971V187.013L218.045 206.387C218.045 206.387 214.201 216.44 218.045 216.44C221.89 216.44 221.684 206.845 221.684 206.845L229.944 192.313C229.944 192.313 233.238 180.799 232.872 179.885C232.507 178.971 223.903 178.971 223.903 178.971Z" fill="#A0616A"/>
<path d="M227.015 167.09C227.015 167.09 221.523 169.283 222.988 175.132C224.452 180.981 222.988 180.798 222.988 180.798C222.988 180.798 230.493 180.067 232.871 181.712L233.42 179.519C233.42 179.519 235.616 166.907 227.015 167.09Z" fill="#75CBE2"/>
<path d="M222.576 149.921C222.153 150.071 221.7 150.113 221.257 150.044C220.814 149.976 220.395 149.798 220.037 149.527C219.69 149.244 219.445 148.855 219.341 148.419C219.237 147.983 219.279 147.526 219.461 147.117C219.811 146.43 220.561 147.281 221.28 146.998C222.866 146.379 224.536 146.002 226.235 145.881C227.044 145.771 227.867 145.882 228.618 146.202C228.975 146.385 229.286 146.649 229.64 146.838C230.291 147.186 231.049 147.263 231.753 147.487C233.209 147.962 234.388 147.816 234.984 149.227C235.175 149.7 235.309 150.195 235.382 150.699C235.593 152.082 235.446 153.495 234.955 154.805C234.175 156.879 232.538 158.693 232.446 160.907C231.444 160.181 231.072 158.871 230.27 157.931C229.672 157.236 228.857 156.764 227.956 156.591C227.706 156.576 227.039 155.969 226.329 152.521C226.189 151.863 226.013 151.146 225.472 150.746C225.135 150.531 224.752 150.397 224.355 150.353C223.41 150.188 222.453 150.101 221.493 150.093" fill="#090814"/>
</g>
<defs>
<clipPath id="clip0_85_304">
<rect width="311" height="314" fill="white"/>
</clipPath>
</defs>
</svg>
