<svg width="591" height="303" viewBox="0 0 591 303" fill="none" xmlns="http://www.w3.org/2000/svg">
<g clip-path="url(#clip0_58_126)">
<mask id="mask0_58_126" style="mask-type:luminance" maskUnits="userSpaceOnUse" x="0" y="0" width="591" height="303">
<path d="M0.25 0H591V302.283H0.25V0Z" fill="white"/>
</mask>
<g mask="url(#mask0_58_126)">
<path d="M483.066 101.021C489.668 91.0221 495.29 82.7441 501.893 72.7451C502.907 71.2091 505.331 68.3641 507.092 69.8601C508.346 70.9261 507.518 75.8921 501.776 83.2251C507.388 75.2751 510.101 71.8261 515.713 63.8761C516.423 62.8711 517.345 61.7551 518.47 61.8711C519.622 61.9891 520.294 63.4501 520.139 64.7251C519.983 66.0001 519.246 67.1071 518.535 68.1491C514.452 74.1251 514.68 74.8961 510.597 80.8721C515.741 73.0121 515.972 71.8991 521.985 64.8181C522.981 63.6451 524.409 62.3741 525.691 63.0191C528.529 64.9561 524.574 70.0191 521.578 74.0211C519.862 76.3141 518.202 78.4761 513.965 83.7691C518.39 78.6551 519.938 76.3291 524.374 71.2271C525.207 70.2691 526.111 69.2651 527.268 68.9561C528.425 68.6471 529.855 69.4061 529.871 70.7071C529.881 71.5351 529.347 72.2581 528.844 72.8941C524.18 78.7951 522.97 81.3331 518.306 87.2331C521.752 83.0011 522.122 82.5021 526.243 79.0891C527.467 78.0761 529.373 77.1691 530.27 78.4621C531.098 79.6571 530.082 81.3751 529.117 82.5171C519.619 93.7591 511.911 101.347 502.413 112.589" fill="white"/>
<path d="M483.066 101.021C489.668 91.0221 495.29 82.7441 501.893 72.7451C502.907 71.2091 505.331 68.3641 507.092 69.8601C508.346 70.9261 507.518 75.8921 501.776 83.2251C507.388 75.2751 510.101 71.8261 515.713 63.8761C516.423 62.8711 517.345 61.7551 518.47 61.8711C519.622 61.9891 520.294 63.4501 520.139 64.7251C519.983 66.0001 519.246 67.1071 518.535 68.1491C514.452 74.1251 514.68 74.8961 510.597 80.8721C515.741 73.0121 515.972 71.8991 521.985 64.8181C522.981 63.6451 524.409 62.3741 525.691 63.0191C528.529 64.9561 524.574 70.0191 521.578 74.0211C519.862 76.3141 518.202 78.4761 513.965 83.7691C518.39 78.6551 519.938 76.3291 524.374 71.2271C525.207 70.2691 526.111 69.2651 527.268 68.9561C528.425 68.6471 529.855 69.4061 529.871 70.7071C529.881 71.5351 529.347 72.2581 528.844 72.8941C524.18 78.7951 522.97 81.3331 518.306 87.2331C521.752 83.0011 522.122 82.5021 526.243 79.0891C527.467 78.0761 529.373 77.1691 530.27 78.4621C531.098 79.6571 530.082 81.3751 529.117 82.5171C519.619 93.7591 511.911 101.347 502.413 112.589" stroke="#010101" stroke-width="1.5" stroke-linecap="round" stroke-linejoin="round"/>
<path d="M501.776 83.2261C503.271 85.0641 504.616 87.0631 505.402 89.2971C506.189 91.5321 506.383 94.0321 505.594 96.2661" stroke="#010101" stroke-width="1.5" stroke-linecap="round" stroke-linejoin="round"/>
<path d="M487.982 301.03C496.125 283.006 508.633 266.975 514.686 248.145C516.189 243.468 517.285 238.533 516.649 233.661C514.859 219.952 486.613 206.095 458.927 244.427C443.722 265.479 434.865 278.284 424.11 300.508C450.185 301.329 470.791 301.029 487.983 301.029L487.982 301.03Z" fill="#55D087" stroke="#010101" stroke-width="1.5" stroke-linecap="round" stroke-linejoin="round"/>
<path d="M483.091 301.03C487.674 293.534 493.349 285.029 497.932 277.533C501.96 270.945 506.079 264.248 511.897 259.172C517.642 254.16 524.927 250.938 532.501 250.059C538.379 249.377 545.074 250.446 548.691 255.13C551.913 259.303 551.793 265.122 550.958 270.328C549.074 282.082 544.271 293.357 536.791 301.264C522.043 301.161 506.202 302.067 483.091 301.03Z" fill="#55D087" stroke="#010101" stroke-width="1.5" stroke-linecap="round" stroke-linejoin="round"/>
<path d="M504.713 221.381C500.473 226.837 470.8 275.647 455.436 301.062" stroke="#010101" stroke-width="1.5" stroke-linecap="round" stroke-linejoin="round"/>
<path d="M542.129 251.311C530.664 267.711 521.521 283.882 511.298 301.084" stroke="#010101" stroke-width="1.5" stroke-linecap="round" stroke-linejoin="round"/>
<path d="M462.009 239.701L473.623 270.528" stroke="#010101" stroke-width="1.5" stroke-linecap="round" stroke-linejoin="round"/>
<path d="M514.11 249.872L484.372 253.533" stroke="#010101" stroke-width="1.5" stroke-linecap="round" stroke-linejoin="round"/>
<path d="M501.852 272.497L518.182 289.431" stroke="#010101" stroke-width="1.5" stroke-linecap="round" stroke-linejoin="round"/>
<path d="M466.801 158.302C469.662 158.501 472.903 158.9 474.589 161.221C475.608 162.624 475.817 164.459 475.526 165.98C464.529 205.545 457.684 244.107 443.262 281.84C440.781 290.765 436.89 289.648 433.698 289.815C425.985 290.218 321.393 289.379 255.893 289.392C253.368 289.392 250.896 287.361 250.635 284.849C250.363 282.227 252.915 274.646 255.939 266.027C262.996 241.397 279.928 186.682 286.708 163.018C287.707 159.531 291.381 157.009 295.006 157.107C324.102 157.894 463.76 158.091 466.801 158.302Z" fill="#ABBFED" stroke="#010101" stroke-width="1.5" stroke-linecap="round" stroke-linejoin="round"/>
<path d="M253.492 8.51903C248.556 4.03503 242.013 8.94203 238.411 14.102C235.816 17.819 233.798 22.128 233.759 26.661C233.718 31.399 235.83 36.104 234.95 40.761C234.253 44.449 231.727 47.713 231.635 51.465C231.526 55.883 234.839 60.07 233.913 64.391C233.436 66.616 231.896 68.451 231.031 70.556C229.692 73.813 230.107 77.733 232.099 80.637C254.003 80.105 275.907 79.574 297.989 79.184C306.673 77.669 312.937 77.255 323.885 75.345C325.593 75.047 327.398 74.439 328.419 73.037C329.739 71.224 329.153 68.621 327.959 66.722C326.765 64.823 325.047 63.282 323.967 61.317C320.954 55.838 323.549 47.013 320.437 41.59C318.632 38.445 315.178 36.491 313.458 33.299C311.211 29.129 312.393 23.778 310.27 19.544C307.805 14.629 301.09 14.322 296.293 11.634C290.645 8.46903 285.923 3.52603 279.735 1.62303C275.102 0.198028 270.054 0.646028 265.412 2.04103C260.77 3.43603 255.86 5.55003 253.492 8.51903Z" fill="#010101" stroke="#010101" stroke-width="1.5" stroke-linecap="round" stroke-linejoin="round"/>
<path d="M466.801 166.331C457.77 202.935 446.747 244.714 435.231 280.47C367.427 280.47 326.194 280.637 260.205 280.637C270.906 247.411 294.914 165.783 294.914 165.783C294.914 165.783 459.759 166.218 466.801 166.331Z" fill="white" stroke="#010101" stroke-width="1.5" stroke-linecap="round" stroke-linejoin="round"/>
<path d="M254.29 18.4171C254.63 21.4121 251.259 23.2721 249.36 25.6121C247.326 28.1191 246.913 31.5551 246.893 34.7831C246.84 43.0951 249.232 58.4851 252.086 64.0001C255.22 70.0571 259.762 72.3511 266.745 72.3511C267.575 78.3741 268.905 85.1471 270.125 91.1021C262.308 91.2161 254.498 91.8491 246.764 92.9941C247.986 99.5141 249.422 106.064 252.252 112.064C255.025 117.944 259.067 123.137 263.415 127.97C266.988 131.942 270.835 135.743 275.387 138.539C281.757 142.451 289.408 144.237 296.851 143.549C299.653 143.29 302.466 142.674 304.925 141.305C307.28 139.994 309.217 138.047 310.953 135.986C319.585 125.74 323.809 111.05 319.032 98.5331C317.88 95.5141 316.216 92.2851 317.21 89.0791C315.512 87.7611 315.087 86.9701 312.938 86.9701C309.571 86.9701 303.224 88.1021 300.41 87.5191C299.407 84.9021 298.427 81.5511 297.846 78.4011C292.665 79.7881 290.907 79.8801 288.556 79.5971C283.442 78.9821 285.011 70.7801 285.074 68.9101C285.268 63.1631 281.729 63.1401 283.677 52.4141C289.448 56.2241 293.937 48.0481 290.558 42.5261C289.34 40.5361 287.29 39.0541 285.002 38.5991C283.866 38.3731 282.655 38.4001 281.59 38.8541C280.525 39.3081 279.627 40.2261 279.037 41.4431C276.491 41.0941 275.544 37.9021 273.52 36.3171C272.213 35.2941 270.45 34.9621 269.205 33.8641C267.327 32.2061 266.975 29.1121 264.783 27.8981C264.07 27.5031 263.248 27.3671 262.472 27.1171C258.556 25.8561 256.171 21.8021 254.291 18.4141L254.29 18.4171Z" fill="white" stroke="#010101" stroke-width="1.5" stroke-linecap="round" stroke-linejoin="round"/>
<path d="M360.43 151.241C372.163 174.821 381.328 201.182 389.837 226.107C350.248 234.049 310.845 240.028 271.251 244.21C262.935 210.427 252.117 176.096 244.142 143.696C235.578 155.988 226.224 170.958 216.126 182.547C196.346 205.247 179.443 207.819 165.35 203.395C151.702 199.11 125.207 183.123 112.095 74.812C127.604 72.442 136.999 72.508 151.378 70.311C160.395 104.531 166.736 127.274 176.731 165.207C182.118 158.851 188.478 138.549 207.442 114.08C213.444 106.336 220.73 99.31 229.676 95.316C236.73 92.166 244.668 91.024 252.324 92.055C265.01 104.683 280.026 115.803 292.189 128.279C298.755 114.301 306.207 101.977 311.984 87.059C338.722 84.451 355.63 94.368 372.744 107.214C389.858 120.06 404.441 136.009 421.418 149.036C444.54 128.832 464.963 108.49 483.576 86.608C491.511 96.74 502.987 105.979 511.803 117.479C502.515 127.041 475.555 157.989 455.266 174.878C445.618 182.909 433.842 190.8 421.399 189.145C415.835 188.405 410.228 187.017 405.319 184.295C394.273 178.168 375.363 163.842 360.431 151.241H360.43Z" fill="#ABBFED" stroke="#010101" stroke-width="1.5" stroke-linecap="round" stroke-linejoin="round"/>
<path d="M277.826 69.3413C274.174 72.0713 269.209 72.4523 265.412 72.3223" stroke="#010101" stroke-width="1.5" stroke-linecap="round" stroke-linejoin="round"/>
<path d="M254.799 39.998C253.725 43.216 252.471 46.374 251.046 49.452C252.435 50.676 254.134 51.545 255.939 51.955" stroke="#010101" stroke-width="1.5" stroke-linecap="round" stroke-linejoin="round"/>
<path d="M389.493 226.256C394.806 243.673 400.956 261.662 407.421 279.762C388.156 279.724 374.013 279.814 350.876 279.814C347.21 275.185 340.375 267.801 340.375 267.801C340.375 267.801 337.947 276.076 336.066 279.832C316.713 279.778 297.859 278.975 279.647 279.025C278.034 275.321 273.223 252.54 271.251 244.209C281.102 240.308 352.422 222.41 389.493 226.256Z" fill="#010101" stroke="#010101" stroke-width="1.5" stroke-linecap="round" stroke-linejoin="round"/>
<path d="M291.91 127.828C304.588 167.694 313.673 198.76 325.918 237.264" stroke="#010101" stroke-width="1.5" stroke-linecap="round" stroke-linejoin="round"/>
<path d="M453.068 3.09082C453.068 3.09082 495.372 3.13782 498.421 3.12582C498.34 17.3128 498.26 29.4998 498.179 43.6878C489.012 43.3578 453.067 43.8978 453.067 43.8978L453.068 3.09082Z" fill="#ABBFED" stroke="#010101" stroke-width="1.5" stroke-linecap="round" stroke-linejoin="round"/>
<path d="M589.462 3.12623L590.25 43.8972C590.25 43.8972 522.887 44.5762 498.179 43.6872C498.26 29.5002 498.34 17.3132 498.421 3.12523C518.455 3.04723 589.462 3.12623 589.462 3.12623Z" fill="#E3E3FF" stroke="#010101" stroke-width="1.5" stroke-linecap="round" stroke-linejoin="round"/>
<path d="M485.231 13.554C487.317 14.809 488.79 17.036 489.129 19.448C489.414 21.48 488.923 23.565 488.04 25.417C487.3 26.968 486.227 28.438 484.693 29.211C483.299 29.913 481.673 29.969 480.113 29.899C478.147 29.811 476.156 29.536 474.364 28.72C472.572 27.904 470.987 26.493 470.297 24.65C469.519 22.571 470.125 20.267 470.99 18.223C473.955 11.223 481.694 11.427 485.23 13.555L485.231 13.554Z" stroke="white" stroke-width="1.5" stroke-linecap="round" stroke-linejoin="round"/>
<path d="M472.33 28.5259L464.991 35.5249" stroke="white" stroke-width="1.5" stroke-linecap="round" stroke-linejoin="round"/>
<path d="M576.32 32.7469C574.364 29.3709 573.203 25.5129 570.751 22.4779C568.299 19.4429 563.837 17.4319 560.465 19.3949C558.224 20.6999 557.124 23.3409 555.142 25.0119C552.761 27.0189 549.355 27.3909 546.286 26.8629C543.217 26.3349 540.349 25.0229 537.415 23.9789C536.242 23.5619 534.944 23.1869 533.775 23.6159C532.438 24.1069 531.645 25.5149 530.381 26.1709C529.14 26.8159 527.651 26.6439 526.265 26.4569C522.557 25.9549 518.85 25.4519 515.142 24.9499" stroke="#010101" stroke-width="1.5" stroke-linecap="round" stroke-linejoin="round"/>
<path d="M217.324 54.0831C178.702 56.2211 139.988 56.6901 101.325 55.4881C104.1 54.8371 105.708 52.3981 106.589 50.1111C109.232 43.2491 105.629 33.4101 100.868 27.8071C139.836 30.6981 179.238 35.7541 217.151 40.6951C221.93 41.7971 222.105 48.0431 220.921 51.5441C220.484 52.8361 219.598 53.9591 217.323 54.0851L217.324 54.0831Z" fill="#6C81B2" stroke="#010101" stroke-width="1.5" stroke-linecap="round" stroke-linejoin="round"/>
<path d="M107.413 31.9439C104.921 27.5469 100.808 27.2459 98.2949 27.9749C91.3599 29.9859 91.9459 44.1089 94.3699 50.5909C95.2649 52.9839 96.9439 55.4949 99.4869 55.7419C101.815 55.9689 105.352 55.1799 106.717 53.2799C110.997 47.3199 111.905 39.8659 107.414 31.9439H107.413Z" fill="#6C81B2" stroke="#010101" stroke-width="1.5" stroke-linecap="round" stroke-linejoin="round"/>
<path d="M104.205 34.9211C102.788 31.8621 100.45 31.6531 99.0196 32.1601C95.0756 33.5591 95.4096 43.3831 96.7876 47.8931C97.2966 49.5581 98.2516 51.3041 99.6966 51.4771C101.021 51.6351 103.032 51.0861 103.808 49.7641C106.242 45.6181 106.758 40.4331 104.204 34.9221L104.205 34.9211Z" fill="white" stroke="#010101" stroke-width="1.5" stroke-linecap="round" stroke-linejoin="round"/>
<path d="M121.427 73.5662C119.954 70.3512 118.662 63.1692 119.844 56.1362C119.943 55.9482 134.743 55.9982 141.545 55.7812C142.399 54.4212 143.292 50.6612 144.041 49.4512C144.329 48.9852 144.649 48.5132 145.121 48.2332C145.952 47.7402 147.081 47.9982 147.795 48.6492C148.509 49.3002 148.867 50.2612 149.028 51.2132C149.367 53.2152 148.194 58.7582 147.773 60.7452C147.025 64.2742 146.25 68.3302 144.269 71.2752C139.265 71.6132 121.429 73.5652 121.429 73.5652L121.427 73.5662Z" fill="white" stroke="#010101" stroke-width="1.5" stroke-linecap="round" stroke-linejoin="round"/>
<path d="M73.2576 166.289C91.6756 167.716 109.15 179.624 116.328 196.646C123.506 213.668 119.508 235.055 106.008 247.665C100.411 252.893 93.4996 256.556 86.3086 259.192C77.8256 262.301 68.7546 264.057 59.7406 263.442C50.7266 262.827 41.7676 259.74 34.8096 253.977C22.8116 244.038 18.2406 227.107 20.2626 211.659C22.9656 191.012 42.7266 163.549 73.2576 166.289Z" fill="#6C81B2" stroke="#010101" stroke-width="1.5" stroke-linecap="round" stroke-linejoin="round"/>
<path d="M72.3739 178.769C86.0559 179.829 99.0379 188.676 104.371 201.321C109.704 213.966 106.733 229.855 96.7039 239.223C92.5459 243.107 87.4119 245.828 82.0689 247.786C75.7669 250.096 69.0279 251.401 62.3309 250.943C55.6339 250.486 48.9789 248.193 43.8099 243.911C34.8969 236.528 31.5009 223.949 33.0029 212.473C35.0109 197.134 49.6919 176.732 72.3729 178.768L72.3739 178.769Z" fill="white" stroke="#010101" stroke-width="1.5" stroke-linecap="round" stroke-linejoin="round"/>
<path d="M71.161 196.445C77.919 196.968 84.3309 201.338 86.9649 207.584C89.5989 213.829 88.132 221.677 83.178 226.304C81.124 228.222 78.589 229.566 75.95 230.534C72.837 231.675 69.5089 232.319 66.2009 232.093C62.8939 231.867 59.6059 230.735 57.0529 228.62C52.6509 224.973 50.973 218.761 51.715 213.092C52.707 205.516 59.9579 195.439 71.1599 196.445H71.161Z" fill="#6C81B2" stroke="#010101" stroke-width="1.5" stroke-linecap="round" stroke-linejoin="round"/>
<path d="M70.3287 208.197C72.6277 208.375 74.8097 209.862 75.7057 211.987C76.6017 214.112 76.1028 216.782 74.4178 218.356C73.7188 219.009 72.8567 219.466 71.9587 219.795C70.8997 220.183 69.7678 220.402 68.6418 220.326C67.5168 220.249 66.3978 219.864 65.5298 219.144C64.0318 217.903 63.4617 215.79 63.7137 213.861C64.0507 211.284 66.5177 207.855 70.3297 208.197H70.3287Z" fill="white" stroke="#010101" stroke-width="1.5" stroke-linecap="round" stroke-linejoin="round"/>
<path d="M68.8867 213.035C50.3907 200.366 31.6607 188.038 12.7107 176.06" stroke="#010101" stroke-width="1.5" stroke-linecap="round" stroke-linejoin="round"/>
<path d="M24.4209 183.236C23.2219 179.939 22.1299 176.603 21.1469 173.236C20.6609 173.406 14.6299 168.96 6.02588 164.746C6.41988 166.718 6.81389 171.19 7.20789 173.163C5.10989 173.786 3.03786 174.5 1.00085 175.3C3.90085 179.174 15.2819 184.873 15.2819 184.873C15.2819 184.873 20.8219 183.688 24.4219 183.237L24.4209 183.236Z" fill="#ABBFED" stroke="#010101" stroke-width="1.5" stroke-linecap="round" stroke-linejoin="round"/>
<path d="M176.218 289.859H429.744C432.774 289.859 435.231 292.316 435.231 295.346C435.231 298.376 432.774 300.834 429.744 300.834H176.218C173.188 300.834 170.731 298.377 170.731 295.347C170.731 292.317 173.188 289.859 176.218 289.859Z" fill="#ABBFED" stroke="#010101" stroke-width="1.5" stroke-linecap="round" stroke-linejoin="round"/>
<path d="M323.562 289.392C325.252 290.128 326.834 291.213 327.883 292.73C328.932 294.247 329.388 296.232 328.817 297.985C328.246 299.738 326.537 301.138 324.695 301.085" stroke="#010101" stroke-width="1.5" stroke-linecap="round" stroke-linejoin="round"/>
<path d="M258.011 289.751C257.628 291.645 257.078 293.775 255.379 294.696C254.405 295.224 253.243 295.232 252.135 295.226C245.568 295.195 239 295.164 232.433 295.132C231.971 295.13 231.497 295.125 231.067 294.958C229.366 294.297 229.47 291.827 228.377 290.366" stroke="#010101" stroke-width="1.5" stroke-linecap="round" stroke-linejoin="round"/>
<path d="M540.584 195.4C544.617 198.777 544.003 197.161 548.036 200.538" stroke="#010101" stroke-width="1.5" stroke-linecap="round" stroke-linejoin="round"/>
<path d="M220.71 231.555C219.799 234.537 218.888 237.519 217.976 240.5" stroke="#010101" stroke-width="1.5" stroke-linecap="round" stroke-linejoin="round"/>
<path d="M141.544 55.7808C141.213 57.0838 140.696 58.1158 140.422 59.4118C138.065 58.6228 135.381 58.8718 133.21 60.0828C131.039 61.2928 129.416 63.4458 128.849 65.8658" stroke="#010101" stroke-width="1.5" stroke-linecap="round" stroke-linejoin="round"/>
<path d="M80.4254 114.591C80.9814 114.766 81.2584 115.502 80.9884 116.018C80.7184 116.534 80.0014 116.74 79.4794 116.48C78.9624 116.222 78.6924 115.533 78.9394 115.01C79.1864 114.487 79.8674 114.415 80.4254 114.591Z" fill="#010101" stroke="#010101" stroke-width="1.5" stroke-linecap="round" stroke-linejoin="round"/>
<path d="M438.506 72.463C439.146 72.664 439.465 73.512 439.155 74.107C438.845 74.702 438.018 74.938 437.417 74.639C436.821 74.342 436.511 73.548 436.795 72.946C437.079 72.344 437.863 72.261 438.506 72.463Z" fill="#010101" stroke="#010101" stroke-width="1.5" stroke-linecap="round" stroke-linejoin="round"/>
<path d="M288.457 142.592C289.097 142.793 289.416 143.641 289.106 144.236C288.796 144.831 287.969 145.067 287.368 144.768C286.772 144.471 286.462 143.677 286.746 143.075C287.03 142.473 287.814 142.39 288.457 142.592Z" fill="#010101" stroke="#010101" stroke-width="1.5" stroke-linecap="round" stroke-linejoin="round"/>
<path d="M296.206 169.083C296.846 169.284 297.165 170.132 296.855 170.727C296.545 171.322 295.718 171.558 295.117 171.259C294.521 170.962 294.211 170.168 294.495 169.566C294.779 168.964 295.563 168.881 296.206 169.083Z" fill="#010101" stroke="#010101" stroke-width="1.5" stroke-linecap="round" stroke-linejoin="round"/>
<path d="M303.506 193.444C304.146 193.645 304.465 194.493 304.155 195.088C303.845 195.683 303.018 195.919 302.417 195.62C301.821 195.323 301.511 194.529 301.795 193.927C302.079 193.325 302.863 193.242 303.506 193.444Z" fill="#010101" stroke="#010101" stroke-width="1.5" stroke-linecap="round" stroke-linejoin="round"/>
<path d="M310.438 217.71C311.078 217.911 311.397 218.759 311.087 219.354C310.777 219.949 309.95 220.185 309.349 219.886C308.753 219.589 308.443 218.795 308.727 218.193C309.011 217.591 309.795 217.508 310.438 217.71Z" fill="#010101" stroke="#010101" stroke-width="1.5" stroke-linecap="round" stroke-linejoin="round"/>
</g>
</g>
<defs>
<clipPath id="clip0_58_126">
<rect width="591" height="303" fill="white" transform="matrix(-1 0 0 1 591 0)"/>
</clipPath>
</defs>
</svg>
