<svg width="28" height="26" viewBox="0 0 28 26" fill="none" xmlns="http://www.w3.org/2000/svg">
<path d="M1.36754 14.7076C1.24754 16.7742 2.19421 18.7609 3.88754 19.9742L2.86087 21.9609C2.55421 22.5609 2.51421 23.2676 2.78087 23.8942C3.03421 24.5209 3.55421 25.0142 4.19421 25.2276L5.24754 25.5609C5.6862 25.7081 6.15952 25.7166 6.60322 25.5854C7.04691 25.4542 7.43946 25.1896 7.72754 24.8276L10.5542 21.4942C11.7409 21.2942 12.8609 20.7876 13.8075 20.0276C14.4742 20.2276 15.1409 20.3342 15.8075 20.3342C16.9809 20.3342 18.1542 19.9742 19.1409 19.2809C19.8475 19.4942 20.5675 19.5876 21.3009 19.5742C22.3542 19.5876 23.3942 19.3742 24.3675 18.9742C25.3049 18.5569 26.1059 17.8841 26.6788 17.0329C27.2518 16.1817 27.5736 15.1864 27.6075 14.1609C27.7142 13.2009 27.5542 12.2276 27.1409 11.3476C27.5275 10.3476 27.5675 9.25424 27.2342 8.2409C26.7409 6.97424 25.8075 5.9209 24.6475 5.25424C23.8742 3.0009 21.7009 1.49424 19.3142 1.65424C17.1809 -0.345764 13.9142 -0.559097 11.5409 1.1609C10.9809 1.01424 10.3942 0.934236 9.80754 0.934236C7.99421 0.894236 6.27421 1.69424 5.14087 3.1209C2.42087 3.82757 0.474207 6.25424 0.36754 9.0809C0.300873 10.5609 0.700874 12.0142 1.51421 13.2542C1.42087 13.7342 1.36754 14.2142 1.36754 14.7076ZM8.03421 12.8276C7.27421 12.9209 6.67421 13.4942 6.67421 14.2542C6.67421 14.6079 6.81468 14.947 7.06473 15.197C7.31478 15.4471 7.65392 15.5876 8.00754 15.5876H8.84754C9.27421 16.7876 10.0209 17.8409 11.0075 18.6409C10.6742 18.7609 10.3275 18.8276 9.98087 18.9209C3.14087 18.8276 3.94087 14.6542 3.94087 14.5876C3.95805 14.134 4.06449 13.6882 4.25409 13.2758C4.4437 12.8633 4.71276 12.4923 5.04589 12.184C5.37901 11.8756 5.76966 11.636 6.19548 11.4787C6.62131 11.3215 7.07396 11.2497 7.52754 11.2676C7.88116 11.2676 8.2203 11.1271 8.47035 10.877C8.7204 10.627 8.86087 10.2879 8.86087 9.93424C8.86087 9.58061 8.7204 9.24148 8.47035 8.99143C8.2203 8.74138 7.88116 8.6009 7.52754 8.6009C5.88754 8.6409 4.31421 9.25424 3.08754 10.3342C3.02087 9.94757 2.98087 9.54757 2.98087 9.14757C3.06087 7.49424 3.80754 6.05424 6.80754 5.77424C8.47421 1.82757 12.6742 4.01424 12.6742 5.2409C12.7142 5.54757 12.3942 6.2009 12.3409 6.2409C11.9873 6.2409 11.6481 6.38138 11.3981 6.63143C11.148 6.88148 11.0075 7.22061 11.0075 7.57424C11.0075 8.30757 11.6075 8.90757 12.3409 8.90757C13.0475 8.8809 13.7142 8.61424 14.2475 8.1609C14.8875 8.57424 15.6209 8.82757 16.3809 8.90757C17.1409 8.97424 17.7675 8.4409 17.8075 7.70757C17.8317 7.53346 17.8201 7.35625 17.7735 7.18676C17.7269 7.01727 17.6462 6.85907 17.5364 6.7218C17.4266 6.58454 17.29 6.4711 17.1348 6.38842C16.9797 6.30574 16.8094 6.25554 16.6342 6.2409C16.4209 6.21424 15.3809 6.05424 15.3809 5.21424C15.3809 4.33424 15.0475 3.49424 14.4742 2.82757C15.7009 2.49424 17.0209 2.93424 18.3542 4.54757C20.8075 4.1609 21.8075 4.49424 22.5409 7.09424C23.8075 7.7209 24.4742 8.1609 24.7675 9.49424C23.3275 9.2009 21.8475 9.3209 20.4742 9.82757C19.8075 10.0809 19.4342 10.8276 19.6875 11.5476C19.9409 12.2409 20.7142 12.5876 21.4075 12.3342C22.3809 11.9076 23.4742 11.8809 24.4742 12.2542C24.9009 12.6142 24.9009 13.3609 24.9009 13.9476C24.9009 14.9342 24.4075 15.8542 23.5675 16.3876C22.8609 16.7476 22.0742 16.9342 21.2875 16.9209C21.4875 16.5742 21.6609 16.2142 21.8075 15.8409C21.9125 15.4983 21.8805 15.1284 21.7183 14.8089C21.5562 14.4895 21.2764 14.2453 20.9379 14.1279C20.5994 14.0105 20.2286 14.0289 19.9034 14.1792C19.5782 14.3296 19.324 14.6003 19.1942 14.9342C18.6609 16.4542 17.3009 17.4942 15.7009 17.6676C13.8742 17.5742 12.2475 16.4942 11.4475 14.8276C11.1409 12.9876 9.66087 12.8276 8.03421 12.8276ZM5.36754 22.7876L6.19421 21.0542L7.14087 21.2676L5.80754 22.9342L5.36754 22.7876ZM11.5675 11.3076C11.556 10.967 11.6752 10.6348 11.9009 10.3794C12.1265 10.124 12.4414 9.96471 12.7809 9.93424C13.7275 9.8809 14.6475 10.2009 15.3542 10.8276C16.1142 11.6009 16.5142 12.6676 16.4742 13.7476C16.4742 14.1012 16.3337 14.4403 16.0837 14.6904C15.8336 14.9404 15.4945 15.0809 15.1409 15.0809C14.3809 15.0809 13.8075 14.4809 13.8075 13.7476C13.8075 13.3876 13.7142 13.0276 13.5009 12.7342C13.3409 12.6009 13.1409 12.5342 12.9275 12.5342C12.1942 12.5742 11.5675 12.0276 11.5675 11.3076Z" fill="black"/>
</svg>
