<svg width="32" height="32" viewBox="0 0 32 32" fill="none" xmlns="http://www.w3.org/2000/svg">
<path d="M28.5824 10.344C28.8076 9.55386 28.8564 8.7239 28.7254 7.91281C28.5944 7.10172 28.2867 6.32933 27.8243 5.65026C27.3618 4.97119 26.7557 4.40204 26.049 3.98305C25.3423 3.56407 24.5521 3.30548 23.7344 3.2256C23.4063 2.28419 22.7936 1.46805 21.9813 0.890156C21.1689 0.312261 20.197 0.00119052 19.2 0C18.0153 0.00401252 16.8746 0.448904 16 1.248C15.1254 0.448904 13.9847 0.00401252 12.8 0C10.7184 0 8.944 1.3296 8.28 3.224C7.46085 3.30188 6.66888 3.55907 5.96027 3.97732C5.25165 4.39558 4.64376 4.96464 4.17971 5.64414C3.71566 6.32365 3.40683 7.09694 3.27512 7.90918C3.14341 8.72141 3.19206 9.55267 3.4176 10.344C2.39068 10.8908 1.53082 11.7052 0.929146 12.7009C0.327476 13.6966 0.00641793 14.8366 0 16C0 17.72 0.6848 19.3376 1.8752 20.5312C1.69154 21.1371 1.59879 21.7669 1.6 22.4C1.6 25.5312 3.8592 28.144 6.8896 28.6944C7.33529 29.677 8.05385 30.511 8.95982 31.097C9.86579 31.683 10.921 31.9964 12 32C13.5664 32 14.9824 31.3488 16 30.3056C16.5192 30.8417 17.1408 31.2679 17.8279 31.559C18.5151 31.8501 19.2537 32 20 32C21.0773 31.998 22.1312 31.6862 23.0362 31.1018C23.9412 30.5174 24.659 29.6851 25.104 28.704C25.9967 28.5466 26.8459 28.2017 27.5955 27.6919C28.3451 27.1822 28.978 26.5192 29.4525 25.7468C29.927 24.9744 30.2323 24.1102 30.3482 23.2111C30.4641 22.3121 30.3879 21.3987 30.1248 20.5312C30.7199 19.9363 31.1918 19.2298 31.5136 18.4523C31.8354 17.6748 32.0007 16.8415 32 16C31.9936 14.8366 31.6725 13.6966 31.0709 12.7009C30.4692 11.7052 29.6093 10.8908 28.5824 10.344ZM12 28.8C10.8624 28.8 9.872 27.9936 9.648 26.8832L9.3088 25.6H8C6.2352 25.6 4.8 24.1648 4.8 22.4C4.8 21.8368 4.936 21.3088 5.2048 20.8304L5.9344 19.5248L4.68 18.7088C4.22696 18.4166 3.85422 18.0156 3.59572 17.5425C3.33723 17.0694 3.20119 16.5391 3.2 16C3.2 14.4368 4.3568 13.0816 5.8912 12.8448L8.6 12.4288L6.9056 10.2752C6.60385 9.8862 6.42886 9.4139 6.40429 8.9222C6.37972 8.4305 6.50675 7.94311 6.76821 7.52596C7.02968 7.10881 7.41294 6.78202 7.86618 6.5898C8.31942 6.39758 8.82077 6.3492 9.3024 6.4512L11.2 6.7312V4.8C11.2 4.37565 11.3686 3.96869 11.6686 3.66863C11.9687 3.36857 12.3757 3.2 12.8 3.2C13.2243 3.2 13.6313 3.36857 13.9314 3.66863C14.2314 3.96869 14.4 4.37565 14.4 4.8V26.4C14.4 27.7232 13.3232 28.8 12 28.8ZM27.32 18.7072L26.0656 19.5232L26.7952 20.8288C27.064 21.3109 27.1989 21.8347 27.2 22.4C27.2 24.1648 25.7648 25.6 23.92 25.6H22.6112L22.352 26.8832C22.2407 27.4247 21.9459 27.9112 21.5173 28.2604C21.0888 28.6097 20.5528 28.8003 20 28.8C18.6768 28.8 17.6 27.7232 17.6 26.4V4.8C17.6 3.9168 18.3168 3.2 19.2 3.2C20.0832 3.2 20.8 3.9168 20.8 4.88V6.8112L22.6976 6.4512C23.1792 6.3492 23.6806 6.39758 24.1338 6.5898C24.5871 6.78202 24.9703 7.10881 25.2318 7.52596C25.4932 7.94311 25.6203 8.4305 25.5957 8.9222C25.5711 9.4139 25.3961 9.8862 25.0944 10.2752L23.4 12.4304L26.1088 12.8464C26.8587 12.9672 27.5411 13.3507 28.0342 13.9285C28.5272 14.5062 28.7986 15.2405 28.8 16C28.8 17.0928 28.2464 18.104 27.32 18.7072Z" fill="black"/>
</svg>
