<svg width="179" height="104" viewBox="0 0 179 104" fill="none" xmlns="http://www.w3.org/2000/svg">
<g clip-path="url(#clip0_1010_1513)">
<path d="M39.2149 17.6421C38.7692 19.7711 42.5849 31.7949 42.5849 31.7949C42.5849 31.7949 47.2287 35.3815 52.021 35.4773C56.8134 35.5731 65.5768 31.9588 66.0811 27.7621C66.6432 23.0853 69.0202 11.6971 62.8903 8.93535C56.7606 6.1736 43.9679 8.44385 39.2149 17.6421Z" fill="#DCB79E"/>
<path d="M38.5712 18.3896C26.7449 19.5854 15.5614 21.4398 11.2882 25.3545C8.48147 27.926 5.99074 31.6815 4.29083 36.8652C2.59093 42.0491 0.219103 62.1923 0.495813 65.172C0.772524 68.1517 3.00834 89.5785 3.20593 93.1295C3.7595 98.742 10.9324 96.9886 32.5171 101.295C54.1014 105.601 67.3054 98.2741 67.8985 95.9474C69.1921 90.8713 93.0023 91.1981 92.5667 86.2332C92.3299 83.5339 92.4877 77.0291 90.7086 75.0086C88.9298 72.9882 86.7159 69.7637 82.7627 68.029L57.8126 60.9162C57.6621 64.8004 62.4683 67.8046 69.4881 71.028C76.5079 74.2515 73.109 74.3277 72.5917 76.5401C72.0744 78.7527 70.0053 80.9653 67.8255 82.453C65.6457 83.9409 63.1701 83.0823 60.8056 81.5756C58.4409 80.0687 42.3323 76.8454 37.6401 76.4067C32.9478 75.968 31.8395 75.7199 31.0636 73.8316C30.2877 71.9434 27.4061 55.2541 27.8494 52.2595C28.2928 49.265 34.3521 40.5292 36.1255 38.908C37.8989 37.2868 44.7474 37.2863 47.2967 37.6106L48.8077 35.5375C39.9861 30.2459 40.3762 25.1079 38.5712 18.3896ZM176.954 32.3681C173.137 32.5766 174.825 32.6145 172.733 33.8082C170.641 35.0018 165.1 40.0983 163.191 39.5109L153.815 82.496C144.459 82.9177 135.233 84.3635 125.978 85.5691C124.032 85.3797 110.197 91.3287 110.197 91.3288C110.197 91.3288 106.747 96.0276 104.765 100.688C103.407 106.618 162.31 104.023 171.632 97.335C180.954 90.647 176.979 72.2179 177.541 60.1245C178.202 45.9148 180.771 32.1597 176.954 32.3681Z" fill="#758A8D"/>
<path d="M144.761 82.4466L143.8 67.0734C143.8 67.0734 141.398 51.5095 144.539 47.4659C147.679 43.4223 149.896 39.9318 153.997 39.5504C158.098 39.169 165.857 40.3896 165.857 40.3896C165.857 40.3896 156.916 58.2804 156.472 63.5257C156.029 68.771 153.849 82.9425 153.849 82.9425L144.761 82.4466Z" fill="#76B57E"/>
<path d="M135.792 7.49219C134.1 11.2376 132.731 20.01 133.135 22.3842C133.135 22.3842 134.216 27.8778 136.057 30.5068C139.97 36.0933 153.487 35.2125 155.081 33.0135C156.905 30.4968 158.164 28.8586 159.489 24.9311L145.733 10.1959L135.792 7.49219Z" fill="#B0886E"/>
<path d="M128.115 85.5494L99.2227 64.3587L116.624 53.0479L143.411 70.3096L143.928 83.2988L128.115 85.5494Z" fill="white"/>
<path d="M44.8812 37.7264C42.3318 37.4021 37.8984 37.2876 36.125 38.9088C34.3515 40.5301 28.2923 49.2659 27.8488 52.2604C27.4055 55.255 30.2873 71.9445 31.0632 73.8328C31.8391 75.721 32.9474 75.9689 37.6397 76.4076C42.3319 76.8463 58.4405 80.0696 60.8052 81.5764C63.1697 83.0832 65.6451 83.9417 67.825 82.4539C70.0048 80.9662 72.0737 78.7536 72.591 76.541C73.1083 74.3285 76.5074 74.2524 69.4875 71.0288C62.4677 67.8054 58.219 66.5275 57.8495 64.8681C57.48 63.2088 56.9627 56.4567 57.3691 55.5602C57.7755 54.6639 58.7731 46.2715 57.3322 43.5058C55.8912 40.7402 52.7876 38.661 51.0142 38.3177C49.2408 37.9745 44.8812 37.7264 44.8812 37.7264Z" fill="#B98FA7"/>
<path d="M53.5691 29.7414C53.1319 28.716 53.5053 26.4819 56.2659 25.7811C59.0265 25.0803 60.9763 24.9814 61.5138 26.1009C62.0514 27.2202 57.8421 29.4169 56.4574 29.8732C55.0726 30.3293 53.642 30.5034 53.5691 29.7414Z" fill="#B07B6F"/>
<path d="M104.611 99.9142C104.611 97.9948 106.619 93.6006 108.517 91.3664C110.89 88.5724 114.611 86.5642 120.378 84.9652L124.871 83.7192L122.683 82.31C120.903 81.1642 120.014 80.9011 117.925 80.9011C116.486 81.0026 108.079 79.0234 104.163 74.8084C102.455 72.9706 101.402 70.3098 101.914 69.1249C102.117 68.6552 101.646 67.7381 100.622 66.6051C99.7364 65.6254 99.133 64.5433 99.2814 64.1999C99.5523 63.5723 109.814 56.1377 113.367 53.9942C115.639 52.6235 118.136 52.525 120.635 53.7071C122.373 54.5297 122.383 54.529 123.805 53.4659C125.357 52.3052 126.933 52.1246 128.826 52.8911C129.955 53.3483 130.337 53.1094 134.218 49.5156C138.973 45.1131 139.918 44.5225 140.968 45.2974C141.364 45.5893 141.688 45.9876 141.688 46.1823C141.688 46.377 139.394 48.5308 136.589 50.968C131.585 55.3181 131.502 55.4232 132.095 56.6827C132.656 57.8741 138.115 60.0691 142.018 61.1109C142.14 60.7026 142.19 61.0131 142.196 57.2345C142.212 47.7047 146.061 40.9073 152.977 38.1881C155.567 37.1693 160.22 36.9391 162.517 37.7151C163.681 38.1086 163.979 38.0306 164.642 37.1586C166.085 35.263 169.289 32.7995 171.76 31.687C174.557 30.4268 177.638 30.2145 178.085 31.2512C178.5 32.2122 177.598 32.9987 174.576 34.313C170.759 35.9729 168.443 38.27 165.996 42.8244C160.761 52.564 157.976 62.5913 156.675 76.3805C156.097 82.5146 155.921 83.2797 154.966 83.8363C154.371 84.1829 150.795 84.7475 146.847 85.1179C135.318 86.1992 123.673 87.8881 119.347 89.1059C113.044 90.8802 109.522 93.6557 107.016 98.8261C105.935 101.057 104.611 101.656 104.611 99.9142ZM135.869 82.4635C139.03 82.003 142.471 81.5799 143.525 81.4044C143.185 79.0224 143.428 74.5298 143.184 72.6852C142.277 74.6369 140.959 75.6353 139.138 76.9867C137.191 78.3745 131.257 80.3388 127.701 80.7724L125.488 81.0424L126.852 82.0851C128.451 83.3076 129.712 83.3601 135.869 82.4635ZM153.194 80.1795C153.771 79.6958 153.9 78.4935 153.794 74.5545C153.534 64.8708 157.07 50.1801 161.487 42.5871C161.919 41.8459 162.136 41.0453 161.971 40.8075C161.805 40.5698 160.462 40.3754 158.986 40.3754C151.612 40.3754 146.436 45.8324 145.891 54.1809L145.672 57.5208L147.48 54.1809C148.475 52.3437 149.739 49.839 150.29 48.6152C150.84 47.3911 151.525 46.1386 151.812 45.8316C152.644 44.9405 154.208 45.1824 154.661 46.2719C155.201 47.5689 154.813 48.6831 152.055 53.7614C150.799 56.0741 148.888 60.1956 147.809 62.9204L145.847 67.8744L146.088 74.5629L146.33 81.2512L149.395 81.0229C151.081 80.8972 152.79 80.5179 153.194 80.1795ZM131.701 76.0201C136.08 74.8062 137.952 73.6921 139.162 71.5839C139.725 70.6043 140.185 69.7139 140.185 69.605C140.185 69.4962 139.114 68.8614 137.805 68.1947C136.496 67.528 133.821 65.9058 131.862 64.5898C129.902 63.2735 127.34 61.7452 126.947 61.6032C126.078 62.1194 123.58 63.4285 120.217 65.5384C118.465 66.637 116.809 67.4132 116.536 67.263C116.263 67.113 117.103 66.0305 118.403 64.8571C120.626 62.8507 120.422 63.2608 120.709 62.7503C120.411 61.9637 119.913 61.4733 120.193 60.1868L117.827 61.8703C116.599 62.7436 112.06 65.9894 109.831 67.3046C109.054 67.763 108.851 67.2161 108.823 66.9951C108.773 66.5834 110.142 65.8751 112.622 63.7419C115.102 61.6083 118.12 59.5689 119.016 59.233C119.912 58.8972 120.678 58.3241 120.72 57.9601C120.761 57.596 120.817 57.1084 120.845 56.8764C120.871 56.6447 120.013 55.871 118.936 55.1569L116.978 53.859L109.917 58.5258C106.035 61.0923 102.35 63.4011 101.73 63.6565C101.11 63.912 100.608 64.2392 100.615 64.3834C100.625 64.6373 105.185 67.8722 109.432 70.6411L111.498 71.9876L111.834 69.7352C112.102 67.9409 112.337 67.554 113.025 67.6234C114.302 67.7522 114.484 68.4387 115.213 71.3878C115.93 74.2864 115.948 75.0528 117.849 76.1804C119.782 77.3271 120.125 77.3801 124.185 77.1535C126.546 77.0219 129.929 76.5119 131.701 76.0201ZM105.112 64.4493C105.112 64.2189 106.522 63.0684 108.244 61.8932C109.966 60.7177 112.212 59.086 113.235 58.2675C115.696 56.2985 116.801 56.8642 114.55 58.9406C112.507 60.825 106.455 64.8688 105.677 64.8688C105.366 64.8688 105.112 64.6801 105.112 64.4493ZM142.181 65.2028C142.184 64.6717 142.209 64.7209 142.184 64.43C138.068 64.0751 134.469 61.962 130.878 60.2963C130.662 60.1991 130.117 60.3254 129.958 60.596C130.514 61.4226 134.724 63.6352 137.911 65.4867C141.192 67.3936 141.617 67.2761 141.617 67.2761C141.617 67.2761 142.18 65.471 142.182 65.2028H142.181ZM73.1327 99.6624C72.7109 99.4249 72.3013 97.6753 72.0132 94.8817C71.548 90.3733 69.9912 84.2423 69.1139 83.4624C68.0338 82.5025 67.6042 83.6112 68.4201 85.2529C69.5482 87.5237 69.6372 95.4378 68.5406 96.0401C67.3954 96.6695 67.0763 96.0702 66.5337 92.2663C65.8085 87.1807 64.6866 85.4207 60.8954 83.4202C59.1732 82.5115 56.3097 81.3667 54.5321 80.876C50.1843 79.676 40.5107 78.3556 33.4642 77.9999C25.0425 77.5751 21.3291 77.0164 20.3972 76.0341C19.8531 75.4609 19.6392 74.4544 19.714 72.8178C20.6744 51.7201 20.3553 36.4899 18.84 31.1094C18.1003 28.4837 15.8761 26.5696 13.5643 26.5696C10.7483 26.5696 8.66651 29.706 6.3734 37.4027C3.23618 47.9327 2.66831 57.6887 4.14026 75.7797C5.01853 86.5743 4.90647 95.0351 3.89258 94.4783C3.66127 94.3511 3.33759 93.198 3.17326 91.9161C3.00878 90.6339 2.30791 85.4767 1.61583 80.4558C-1.32016 59.1662 -0.262349 42.9896 4.8486 31.0042C6.59178 26.916 10.0459 23.5068 14.4244 21.5526C21.7584 18.2789 35.3075 16.1037 37.0091 17.9263C37.5795 18.5371 37.7659 18.2178 38.3565 15.6199C38.7335 13.9618 39.3988 11.9923 39.8343 11.2436C41.2221 8.85885 49.0682 1.67912 51.3686 0.689108C53.4193 -0.193181 53.5935 -0.201752 54.8197 0.511935C55.7289 1.04163 56.0479 1.55539 55.8983 2.25018L55.6864 3.23571L57.4576 2.43368C59.475 1.519 60.6662 1.43042 62.0558 2.09173C63.1162 2.59605 63.3575 4.06772 62.461 4.56002C62.1208 4.74671 62.5196 5.10332 63.4627 5.45564C65.102 6.06822 65.4405 6.87657 64.433 7.77181C63.9724 8.18124 64.0843 8.69265 64.9261 10.0239C66.0538 11.8073 67.5346 17.1781 67.5346 19.4842C67.5346 20.5945 67.7734 20.8451 69.0479 21.0717C69.8806 21.2196 70.6717 21.4991 70.8061 21.6926C71.1823 22.2337 68.645 23.0949 67.5602 23.0949C67.6139 23.6708 67.5328 23.7662 67.5287 24.6771C67.5181 27.4052 66.0912 30.7082 64.177 32.4511C61.116 35.2374 57.4995 36.5734 53.1089 36.539C49.6901 36.5123 49.4794 36.6562 50.8396 37.0984C56.7966 39.0351 63.0489 45.5714 67.785 50.1887C70.7766 53.3118 72.2421 54.36 75.2903 55.5585C79.8937 57.3684 80.5936 56.1112 82.5218 42.5689L83.4802 35.8406L82.4181 34.241C80.605 31.5095 81.2148 24.3004 83.1162 25.9903C83.419 26.2595 83.8625 28.0297 84.1016 29.924C84.3405 31.8184 84.6637 33.4815 84.8194 33.6201C84.9754 33.7587 85.7919 33.2596 86.6339 32.5112C87.9702 31.3233 88.2286 30.6794 88.669 27.4425C89.6254 20.4121 91.0743 19.8174 91.5955 26.2418L91.893 29.9098L92.6948 28.3511C93.1355 27.4937 93.6553 26.0384 93.8496 25.1171C94.5971 21.5735 96.1975 22.747 95.9829 26.6819C95.9059 28.0906 95.8935 29.2431 95.9565 29.2427C96.0182 29.2427 96.4187 28.6404 96.8461 27.9055C97.2737 27.1707 97.843 26.5696 98.1118 26.5696C98.9989 26.5696 98.632 30.3026 97.5968 31.8115C96.4976 33.4143 93.1104 35.5006 89.763 36.6368C87.3174 37.4667 87.3235 37.4561 86.5704 42.6016C85.6867 48.6425 84.1061 55.0433 83.04 56.9004C81.3177 59.9011 78.1237 60.6846 74.1498 59.0814C70.4555 57.5914 67.6504 55.4967 64.267 51.702C59.3781 46.2185 59.5189 46.2408 59.5189 50.9435C59.5189 53.142 59.3765 56.1501 59.2029 57.6284L58.8868 60.3158L61.5829 60.6224C65.4319 61.0603 75.1513 63.4022 79.5603 64.9547C87.255 67.6634 90.3849 70.1291 92.6488 75.2647C94.6052 79.7024 95.2313 85.8434 93.8819 87.3581C93.1336 88.1982 93.0497 88.205 92.4109 87.4744C92.0382 87.0485 91.59 85.195 91.4152 83.3557C91.2168 81.2718 90.5176 78.6756 89.5595 76.4667C87.3619 71.4015 85.0102 69.6241 76.661 66.7146C70.8585 64.6926 59.93 61.306 59.2067 61.306C58.6899 61.306 59.5633 63.7222 60.3663 64.5141C60.7895 64.9315 62.8446 65.9054 64.9331 66.6782C70.1016 68.5907 72.434 69.9751 73.3498 71.6749C73.8106 72.53 75.2995 73.7809 77.0427 74.7773C80.6226 76.8237 83.1945 80.0978 85.1564 85.1066C86.7728 89.2332 86.8884 90.3581 85.7814 91.1747C84.4218 92.1778 83.5434 91.1347 81.5895 86.1991C79.7137 81.461 76.9257 77.1161 75.1367 76.1424C74.252 75.6612 74.1377 75.7751 73.8387 77.4378C73.6584 78.4405 73.1571 79.7931 72.7245 80.4436C71.9858 81.5551 72.035 81.894 73.5379 86.0512C75.3739 91.1291 76.1799 98.1732 75.0627 99.3703C74.3386 100.146 74.065 100.187 73.1337 99.6624H73.1327ZM67.0267 81.7948C67.9229 81.3686 67.9172 81.2899 66.8757 79.5992C66.2811 78.6345 65.9561 77.702 66.1534 77.5266C66.3505 77.3513 67.422 77.7429 68.5343 78.3972L70.5564 79.5868L71.0921 78.351C71.4336 77.5646 71.4762 76.3116 71.2098 74.9035C70.8476 72.9901 70.5211 72.5346 68.7871 71.5262C67.685 70.8853 65.4597 69.894 63.8427 69.3231C60.716 68.2196 58.3835 66.716 57.377 65.1548C56.9682 64.5202 56.6784 60.9965 56.5116 54.6259C56.9192 45.539 55.7696 39.1689 44.4867 38.2627C41.6883 38.086 40.9263 38.2115 39.0699 39.1557C37.8821 39.7603 36.5386 40.726 36.0847 41.3018L35.2596 42.3493L36.8516 41.3416C37.7276 40.7872 38.577 40.1424 38.7393 39.909C39.2048 39.2396 41.4817 39.414 41.7962 40.1433C42.216 41.1153 40.7567 42.5891 35.6613 46.3407C31.7305 49.2349 31.0507 49.9372 30.7818 51.3851C30.2847 54.0571 30.4 64.5161 30.9242 64.3491C31.181 64.2677 33.6805 63.239 36.4277 61.9741C39.0165 60.7822 41.5857 60.1773 41.4718 57.2659C41.2779 52.3112 43.5369 47.7857 47.1286 47.1868C49.2758 46.8288 50.704 47.8165 49.2655 48.5546C47.9169 49.2469 45.6646 51.399 45.9368 51.6409C46.0584 51.749 47.3279 51.0565 48.9173 50.5602C51.6194 49.7158 53.505 50.1988 53.505 51.0482C53.505 51.2508 52.3214 51.961 50.8747 52.6264C48.0774 53.913 46.4903 54.9799 46.4903 55.5738C46.4903 55.7731 47.3268 55.4323 48.3491 54.8158C49.7311 53.9821 50.7262 53.7284 52.2321 53.8271C54.741 53.9909 54.9901 55.5079 52.6343 56.0507C51.0815 56.4081 47.4894 58.6816 45.9489 60.6648C45.5577 61.1685 42.1236 62.958 38.3169 64.6415C34.739 66.2238 32.8803 66.9668 31.1948 67.5952C31.5845 70.2435 33.947 74.9418 34.369 74.5877L37.799 74.8867C43.098 75.3486 50.936 76.4441 54.2131 77.181C57.1351 77.838 62.8258 80.175 64.7783 81.5199C65.9891 82.3538 65.8817 82.3407 67.0264 81.7962L67.0267 81.7948ZM30.8264 74.1097C29.9841 73.6429 28.136 69.433 28.4874 68.4383C27.128 69.1654 25.0539 70.0013 23.808 70.3295C23.3451 70.8199 23.2976 71.7218 23.2051 72.7738C23.0663 74.3529 23.2608 74.8373 26.9601 74.6663C30.0344 74.5241 31.2529 74.3461 30.8264 74.1097ZM27.7173 53.2897C27.7219 53.175 26.6862 54.396 25.7132 55.7478C23.9764 58.1612 23.9446 58.2913 23.9446 62.8824V67.5588L27.9526 65.7412C27.1826 61.5427 27.5422 57.1781 27.7173 53.2897ZM27.3822 48.9092C28.5838 47.522 30.2253 45.1526 31.0298 43.6436C32.6151 40.6689 35.511 38.0276 38.4044 36.916C39.5807 36.4645 41.7739 36.2087 44.5837 36.196C48.4712 36.1792 48.7835 36.118 47.4921 35.6354C41.8369 33.5222 39.5484 28.259 38.649 23.7446L37.8076 19.5232L35.6498 19.2359C33.9908 19.0143 31.6923 19.3647 25.6982 20.7521C15.4982 23.1128 11.6213 24.802 15.0172 25.4058C20.1488 26.3181 22.2967 30.9353 23.2238 43.0475C23.4016 45.374 23.6198 47.6787 23.7085 48.1686C23.7971 48.6586 23.8997 49.9613 23.9366 51.0635C23.9937 52.785 24.0872 52.9519 24.6003 52.2491C24.9283 51.7993 26.1804 50.2962 27.3822 48.9092ZM59.2676 32.9011C61.7048 31.7736 63.9422 29.9436 64.5114 28.6123C64.7441 28.0691 65.0916 26.5041 65.2841 25.1337C65.6 22.8868 65.531 22.5934 64.5803 22.141C63.2429 21.5048 63.2092 20.335 64.5285 20.335C65.3589 20.335 65.5302 20.0382 65.5302 18.6007C65.5302 16.119 63.7435 11.3183 62.4087 10.2124C61.3934 9.37131 60.7891 9.28609 56.7624 9.41541C54.2822 9.49492 50.9506 9.83696 49.3584 10.1758C46.6851 10.7438 46.3134 10.9832 44.5014 13.3045C43.4222 14.6872 42.0691 16.6376 41.4944 17.6389C40.4723 19.4196 40.4674 19.5447 41.2692 23.3483C42.2099 28.1448 43.7448 31.5107 49.1159 33.5732C51.4814 34.375 56.8504 34.0194 59.2676 32.9011ZM52.8166 30.9019C50.6171 29.459 52.7072 25.8307 56.3543 24.7609C58.2984 24.1907 61.7057 24.5796 62.5338 25.4667C63.6458 26.6577 62.8351 27.951 60.0191 29.4787C56.7224 31.267 54.1483 31.7757 52.8166 30.9019ZM57.7644 28.2113C61.096 27.1282 61.789 25.9904 59.2514 25.7694C57.512 25.6178 54.3592 27.2751 54.0984 28.4781C53.8928 29.4271 54.0647 29.4147 57.7644 28.2113ZM54.8134 17.8535C54.4858 17.0949 55.2794 15.4361 55.9697 15.4361C56.5337 15.4361 57.0153 17.139 56.6745 17.9287C56.3121 18.7679 55.1889 18.7226 54.8134 17.8535ZM61.5224 16.5867C61.5224 15.4506 61.7431 14.9911 62.2891 14.9911C63.9028 14.9911 63.7547 17.521 62.1126 18.0073C61.7323 18.1198 61.5224 17.6137 61.5224 16.5867ZM51.2707 15.4649C50.8581 14.8709 52.3619 12.7318 53.4107 12.4213C54.4137 12.1239 54.0741 13.5354 52.8344 14.8163C51.9752 15.704 51.5577 15.8773 51.2707 15.4649ZM141.53 36.3594C137.96 35.5542 134.294 31.0813 133.269 26.6972C132.908 25.1524 132.759 25.0428 130.948 24.9866C127.277 24.8734 126.824 22.1162 130.476 22.1162H132.168L132.179 18.4423C132.186 16.4216 132.485 13.5125 132.847 11.9778C133.393 9.65939 133.392 9.10415 132.836 8.69459C130.891 7.25939 133.007 4.66232 136.993 3.59348C142.984 1.98738 151.347 2.56376 153.983 4.76462C154.559 5.24558 155.65 5.63888 156.408 5.63888C158.606 5.63888 159.48 6.3136 160.854 9.06818C163.338 14.0489 163.666 22.5518 161.489 25.5055C161.032 26.1251 160.363 27.5057 160.001 28.5733C159.184 30.9848 155.587 34.8449 153.109 35.9684C149.577 37.5706 143.292 36.7567 141.53 36.3594ZM152.208 33.2507C154.111 32.3875 156.721 29.2712 156.717 27.8665C156.717 27.5209 155.701 26.8668 154.461 26.4135C151.162 25.2078 148.679 22.4235 146.461 17.442C145.015 14.1933 144.133 12.8634 142.756 11.8542C140.447 10.1625 136.826 8.89202 136.114 9.52404C134.585 10.883 134.216 18.5785 135.413 24.1387C136.954 31.2947 140.201 34.1406 146.825 34.1406C149.256 34.1406 150.813 33.8829 152.208 33.2507ZM136.445 23.0324C136.265 22.7735 136.395 22.5618 136.734 22.5618C137.073 22.5618 137.764 22.229 138.27 21.8223C139.364 20.9424 140.125 21.3938 139.365 22.4716C138.738 23.3604 136.916 23.7105 136.445 23.0324ZM136.265 20.3835C135.369 19.8911 135.686 16.9951 136.636 16.9951C137.718 16.9951 138.46 19.3865 137.613 20.1399C137.205 20.5025 136.66 20.6009 136.265 20.3835Z" fill="black"/>
</g>
<defs>
<clipPath id="clip0_1010_1513">
<rect width="179" height="104" fill="white"/>
</clipPath>
</defs>
</svg>
