<svg width="28" height="21" viewBox="0 0 28 21" fill="none" xmlns="http://www.w3.org/2000/svg">
<path d="M19.3337 17.6669V20.3335H0.666992V17.6669C0.666992 17.6669 0.666992 12.3335 10.0003 12.3335C19.3337 12.3335 19.3337 17.6669 19.3337 17.6669ZM14.667 5.00021C14.667 4.07723 14.3933 3.17498 13.8805 2.40755C13.3677 1.64012 12.6389 1.04198 11.7862 0.688774C10.9335 0.335565 9.99515 0.24315 9.0899 0.423214C8.18466 0.603278 7.35314 1.04774 6.70049 1.70038C6.04785 2.35303 5.60339 3.18455 5.42333 4.08979C5.24326 4.99504 5.33568 5.93335 5.68889 6.78607C6.0421 7.63879 6.64024 8.36762 7.40766 8.8804C8.17509 9.39318 9.07735 9.66688 10.0003 9.66688C11.238 9.66688 12.425 9.17521 13.3002 8.30004C14.1753 7.42487 14.667 6.23789 14.667 5.00021ZM19.2537 12.3335C20.0733 12.9679 20.744 13.7741 21.2186 14.6956C21.6931 15.617 21.9599 16.6312 22.0003 17.6669V20.3335H27.3337V17.6669C27.3337 17.6669 27.3337 12.8269 19.2537 12.3335ZM18.0003 0.333545C17.0827 0.329277 16.1854 0.603587 15.427 1.12021C16.2369 2.25186 16.6724 3.60859 16.6724 5.00021C16.6724 6.39183 16.2369 7.74856 15.427 8.88021C16.1854 9.39684 17.0827 9.67115 18.0003 9.66688C19.238 9.66688 20.425 9.17521 21.3002 8.30004C22.1753 7.42487 22.667 6.23789 22.667 5.00021C22.667 3.76253 22.1753 2.57555 21.3002 1.70038C20.425 0.825211 19.238 0.333545 18.0003 0.333545Z" fill="black"/>
</svg>
