<svg width="24" height="24" viewBox="0 0 24 24" fill="none" xmlns="http://www.w3.org/2000/svg">
<path d="M22.6668 22.6668L17.2668 17.2668M17.2668 17.2668C18.1335 16.4001 18.8211 15.3711 19.2901 14.2387C19.7592 13.1063 20.0006 11.8926 20.0006 10.6668C20.0006 9.44108 19.7592 8.22735 19.2901 7.09492C18.8211 5.96249 18.1335 4.93354 17.2668 4.06682C16.4001 3.20009 15.3711 2.51257 14.2387 2.0435C13.1063 1.57443 11.8926 1.33301 10.6668 1.33301C9.44108 1.33301 8.22735 1.57443 7.09492 2.0435C5.96249 2.51257 4.93354 3.20009 4.06682 4.06682C2.31639 5.81725 1.33301 8.19134 1.33301 10.6668C1.33301 13.1423 2.31639 15.5164 4.06682 17.2668C5.81725 19.0172 8.19134 20.0006 10.6668 20.0006C13.1423 20.0006 15.5164 19.0172 17.2668 17.2668Z" stroke="#A6A6A6" stroke-width="2.66667" stroke-linecap="round" stroke-linejoin="round"/>
</svg>
