<svg width="65" height="64" viewBox="0 0 65 64" fill="none" xmlns="http://www.w3.org/2000/svg">
<path d="M32.4998 10.6665C35.3288 10.6665 38.0419 11.7903 40.0423 13.7907C42.0427 15.7911 43.1665 18.5042 43.1665 21.3332C43.1665 24.1621 42.0427 26.8753 40.0423 28.8756C38.0419 30.876 35.3288 31.9998 32.4998 31.9998C29.6709 31.9998 26.9578 30.876 24.9574 28.8756C22.957 26.8753 21.8332 24.1621 21.8332 21.3332C21.8332 18.5042 22.957 15.7911 24.9574 13.7907C26.9578 11.7903 29.6709 10.6665 32.4998 10.6665ZM32.4998 37.3332C44.2865 37.3332 53.8332 42.1065 53.8332 47.9998V53.3332H11.1665V47.9998C11.1665 42.1065 20.7132 37.3332 32.4998 37.3332Z" fill="black"/>
</svg>
