<?xml version="1.0" encoding="utf-8" ?><svg xmlns="http://www.w3.org/2000/svg" xmlns:xlink="http://www.w3.org/1999/xlink" width="1024" height="1024" viewBox="0 0 1024 1024"><path fill="white" d="M0 0L1024 0L1024 1024L0 1024L0 0Z"/><path fill="#1A0A94" d="M360.51 478.202C358.583 469.523 358.572 456.616 359.295 447.827C362.828 408.579 381.862 372.359 412.181 347.187C444.023 320.357 485.715 309.532 526.756 309.837C535.437 309.901 542.223 310.817 550.748 311.532L552.065 312.606C542.624 315.622 537.548 329.969 534.706 338.485C491.932 337.194 456.727 345.546 424.594 375.763C403.531 395.57 389.582 424.437 388.754 453.502C388.495 462.602 391.497 474.122 390.388 482.337C389.101 491.876 363.747 530.033 357.395 542.398C394.962 560.31 388.083 569.268 388.935 607.466C389.113 615.471 388.501 626.302 396.754 630.557C403.126 633.514 411.897 632.369 418.673 631.665C439.608 629.491 460.114 629.304 478.692 640.656C493.591 649.76 504.592 664.406 510.797 680.628C516.25 694.882 525.02 709.429 539.418 716.023L538.719 717.678C518.922 717.325 500.078 713.726 487.885 695.999C485.424 692.421 483.527 687.509 481.311 683.596C474.978 672.408 464.547 665.742 452.563 661.787C427.374 653.538 401.806 670.27 378 653.987C349.536 634.518 360.456 605.183 358.264 576.716C357.317 573.362 351.341 571.712 348.311 571.563C338.438 571.077 327.787 569.618 324.569 558.305C320.876 545.318 329.555 534.562 335.54 523.707L360.51 478.202Z"/><path fill="#13E2D4" d="M575.99 319.089C600.541 317.325 606.817 346.988 584.693 356.536L584.678 410.273C591.351 412.344 593.1 412.796 598.751 416.676C607.265 407.053 613.766 400.266 623 391.212C621.365 387.097 620.257 382.808 620.717 378.346C621.179 373.571 623.581 369.195 627.362 366.242C631.56 362.917 636.944 361.472 642.242 362.248C647.507 362.976 652.238 365.845 655.316 370.178C658.135 374.242 659.179 379.277 658.207 384.126C655.733 396.962 644.708 401.159 632.915 398.913C630.24 400.481 610.677 422.274 607.398 425.93C610.362 430.757 611.596 432.525 612.612 438.041L662.54 437.918C664.763 433.818 666.77 429.895 671.09 427.565C675.312 425.289 682.155 424.889 686.694 426.25C691.284 427.638 695.114 430.829 697.308 435.093C699.801 439.88 700.281 445.465 698.639 450.607C695.112 461.749 683.456 465.434 672.958 462.036C667.045 460.122 665.013 455.228 662.541 450.079C645.933 450.048 629.325 450.14 612.719 450.352C612.524 453.496 610.772 457.988 609.124 460.721C602.729 471.326 595.847 475.119 584.535 478.319C584.867 494.667 584.999 511.018 584.932 527.369C598.965 534.049 603.169 549.296 591.234 560.302C580.601 568.179 565.94 564.906 561.209 552.201C559.477 547.603 559.645 542.504 561.676 538.03C563.941 533.108 568.379 529.232 573.387 527.265L573.528 478.381C568.009 476.738 565.319 475.547 560.398 472.571C555.915 476.491 542.44 490.07 539.206 494.183C541.452 504.083 540.093 513.413 530.824 518.887C516.011 527.633 497.434 513.059 502.895 496.549C504.457 491.831 507.829 487.926 512.27 485.695C519.036 482.343 524.524 483.843 531.068 486.077C537.884 478.817 544.307 471.762 551.669 465.053C548.651 460.529 546.695 455.242 545.079 450.087C531.112 449.924 516.877 450.06 502.881 450.039C493.484 473.602 460.255 462.691 465.998 439.995C467.327 434.884 470.689 430.54 475.304 427.973C487.043 421.448 497.196 427.493 503.098 438.154C513.664 438.987 533.942 438.274 545.292 438.188C549.592 423.228 558.36 415.127 573.179 410.727C573.458 392.664 573.094 374.475 573.5 356.446L572.802 356.072C566.831 352.825 561.957 348.603 560.168 341.73C558.988 337.151 559.714 332.29 562.18 328.256C565.304 323.131 570.274 320.347 575.99 319.089Z"/><path fill="white" d="M576.126 421.866C588.541 420.198 599.96 428.903 601.639 441.316C603.319 453.729 594.624 465.156 582.212 466.847C569.785 468.539 558.34 459.831 556.659 447.402C554.977 434.973 563.696 423.537 576.126 421.866Z"/><path fill="white" d="M637.114 373.724C641.255 372.405 645.678 374.707 646.974 378.855C648.271 383.003 645.945 387.413 641.79 388.687C637.667 389.95 633.298 387.646 632.012 383.531C630.726 379.415 633.005 375.033 637.114 373.724Z"/><path fill="white" d="M678.806 436.755C683.052 435.913 687.171 438.684 687.992 442.933C688.813 447.182 686.022 451.289 681.769 452.089C677.545 452.884 673.473 450.116 672.658 445.896C671.842 441.676 674.59 437.591 678.806 436.755Z"/><path fill="white" d="M482.024 437.016C486.052 435.537 490.517 437.602 491.997 441.63C493.477 445.658 491.412 450.123 487.384 451.604C483.356 453.084 478.89 451.019 477.41 446.99C475.93 442.962 477.996 438.496 482.024 437.016Z"/><path fill="white" d="M576.996 538.419C581.067 537.182 585.368 539.491 586.585 543.569C587.802 547.646 585.472 551.936 581.388 553.133C577.333 554.322 573.079 552.011 571.871 547.962C570.662 543.912 572.952 539.647 576.996 538.419Z"/><path fill="white" d="M520.771 494.911C524.968 494.493 528.707 497.562 529.117 501.759C529.527 505.957 526.451 509.691 522.253 510.092C518.065 510.493 514.344 507.428 513.935 503.241C513.527 499.055 516.585 495.327 520.771 494.911Z"/><path fill="white" d="M578.514 330.464C582.576 330.223 586.087 333.272 586.418 337.328C586.749 341.384 583.779 344.961 579.731 345.382C577.032 345.663 574.392 344.46 572.832 342.24C571.272 340.019 571.036 337.128 572.215 334.684C573.395 332.24 575.805 330.625 578.514 330.464Z"/><path fill="#1A0A94" d="M580.886 716.543C573.487 716.204 567.154 712.423 560.979 708.698C540.473 696.328 530.386 672.411 528.184 649.423C526.759 634.547 530.816 619.685 526.788 605.067C519.235 577.861 496.643 554.022 467.45 551.745C460.565 550.835 451.985 551.976 445.386 549.983C432.296 546.029 431.524 527.01 443.7 521.348C447.795 519.773 453.282 520.087 457.53 520.305C487.279 521.828 513.144 533.151 533.013 555.41C540.25 563.436 546.077 572.628 550.248 582.598C554.637 592.801 557.173 603.705 557.734 614.797C559.033 637.83 554.181 655.99 565.678 678.176C575.359 696.857 588.448 708.996 608.387 715.67C610.905 715.915 611.307 716.187 613.56 716.991C608.525 717.015 584.872 717.312 580.886 716.543Z"/><path fill="#534C78" d="M608.387 715.67C610.905 715.915 611.307 716.187 613.56 716.991C608.525 717.015 584.872 717.312 580.886 716.543C585.779 716.324 605.409 717.22 608.387 715.67Z"/><path fill="#1A0A94" d="M663.699 714.937C656.405 715.398 645.324 714.946 638.359 713.369C621.085 709.611 606.044 699.073 596.613 684.12C589.59 672.933 587.038 659.822 585.571 646.903C582.643 621.115 590.744 595.361 604.701 573.825C612.482 561.818 619.59 553.646 625.032 539.364C629.111 529.054 632.324 517.871 633.556 506.822C634.529 498.098 630.988 487.927 640.513 482.624C644.272 480.49 648.736 479.975 652.882 481.196C668.023 485.7 664.21 500.572 662.23 512.106C658.307 534.963 650.257 557.447 637.949 577.135C629.999 589.005 622.694 598.28 618.407 612.142C604.906 655.792 622.501 698.341 668.456 712.672C666.738 714.879 666.41 714.172 663.699 714.937Z"/><path fill="#1A0A94" d="M521.195 361.222C528.08 361.189 537.771 361.452 540.547 368.117C549.409 389.394 531.449 391.601 517 390.398C501.816 389.133 487.724 394.687 475.431 401.338C459.076 410.186 445.466 424.05 441.801 442.692C439.654 453.548 443.278 461.372 431.762 467.74C419.454 470.749 411.415 466.372 410.773 452.984C409.78 432.27 421.035 412.697 434.503 397.763C457.19 372.608 488.249 362.794 521.195 361.222Z"/><path fill="#2C2176" d="M668.456 712.672C669.768 713.086 671.397 713.434 672.755 713.703C673.814 713.838 674.428 713.821 675.513 713.834L673.308 715.07C671.965 714.997 670.676 714.997 669.332 714.978C667.454 715 665.576 714.986 663.699 714.937C666.41 714.172 666.738 714.879 668.456 712.672Z"/><path fill="#534C78" d="M672.755 713.703C673.814 713.838 674.428 713.821 675.513 713.834L673.308 715.07C671.965 714.997 670.676 714.997 669.332 714.978C670.487 714.733 672.419 714.859 672.755 713.703Z"/><path fill="#9B9AAC" d="M550.748 311.532C553.429 311.433 555.817 312.318 552.065 312.606L550.748 311.532Z"/><path fill="#9B9AAC" d="M675.513 713.834C676.128 713.978 676.771 714.046 677.255 714.479C677.444 715.25 673.848 715.051 673.308 715.07L675.513 713.834Z"/><path fill="#2C2176" d="M539.418 716.023C540.052 716.281 541.368 716.689 541.722 717.212C541.529 717.617 539.096 717.646 538.719 717.678L539.418 716.023Z"/></svg>