<?xml version="1.0" encoding="utf-8" ?><svg xmlns="http://www.w3.org/2000/svg" xmlns:xlink="http://www.w3.org/1999/xlink" width="1024" height="1024" viewBox="0 0 1024 1024"><path fill="#190B96" d="M514.743 310.21C523.05 308.963 544.948 311.061 553.96 311.904C541.555 317.14 538.286 326.3 534.707 338.382C517.642 337.298 494.731 339.636 478.413 344.309C433.236 357.247 393.516 397.778 389.116 445.691C388.72 449.662 388.62 453.658 388.817 457.644C389.203 464.22 391.637 479.523 389.498 484.645C381.333 504.198 367.281 523.858 357.097 542.365C361.379 544.316 365.557 546.486 369.616 548.866C385.682 558.49 388.961 567.354 388.597 585.84C388.796 597.582 387.919 610.46 390.028 622.013C392.692 635.173 411.124 632.44 420.817 631.523C437.569 629.94 454.256 629.844 470.019 636.309C485.901 642.823 500.154 657.418 507.249 672.958C515.658 691.376 519.365 704.221 537.693 715.219L539.801 716.298L539.762 716.86C535.687 718.152 523.508 716.475 519.42 715.751C499.114 712.155 488.992 700.067 480.542 682.404C475.645 672.166 460.139 663.217 449.12 660.674C424.807 655.193 398.652 669.251 376.657 653.072C349.25 632.912 360.919 605.102 358.097 576.904C357.452 570.453 338.915 571.84 332.535 567.963C313.086 556.146 330.146 533.68 337.662 519.927C345.05 506.228 353.13 492.356 360.57 478.428C353.209 439.041 368.981 393.813 395.056 363.979C426.896 327.55 467.762 313.323 514.743 310.21Z"/><path fill="#11E2D4" d="M576.28 319.161C584.432 318.766 592.033 321.115 596.033 328.787C598.31 333.159 598.761 338.255 597.287 342.959C595.033 349.986 590.69 353.264 584.507 356.346C584.644 374.211 584.679 392.076 584.612 409.941C590.546 411.836 593.525 413.33 598.847 416.571C606.52 407.712 614.62 399.233 623.118 391.162C621.931 388.481 621.177 385.629 620.883 382.711C619.74 371.346 627.254 362.451 638.752 362.129C644.372 361.983 649.802 364.167 653.756 368.163C657.129 371.546 658.9 376.207 658.625 380.976C657.812 396.809 646.181 400.067 632.755 398.876C628.064 402.659 612.157 420.513 607.403 425.698C610.191 430.325 611.318 432.754 612.643 438.013C629.285 437.853 645.928 437.821 662.57 437.917C667.451 427.347 676.555 422.552 687.871 426.747C692.376 428.442 695.999 431.895 697.909 436.313C700.065 441.201 700.174 446.749 698.211 451.719C694.02 462.198 681.895 465.65 671.711 461.546C667.053 459.669 664.624 454.649 662.897 450.177C647.294 450.941 628.172 450.478 612.31 450.484C609.967 466.901 599.176 473.569 584.597 478.404C585.585 492.178 585.002 512.1 585.068 526.475C597.983 535.776 604.232 548.233 590.552 560.664C585.304 564.162 578.53 565.468 572.484 563.361C567.815 561.698 563.995 558.252 561.861 553.778C559.705 549.341 559.395 544.231 560.999 539.566C563.281 533.085 567.752 530.182 573.496 527.357C573.438 511.093 573.487 494.83 573.643 478.566C568.243 476.96 564.86 475.64 560.259 472.481C552.964 479.398 546.388 486.163 539.414 493.383C540.324 502.983 540.67 512.644 531.332 518.529C527.119 521.137 522.045 521.968 517.22 520.843C511.98 519.623 507.446 516.355 504.632 511.769C498.98 502.596 502.419 491.245 511.807 485.992C517.76 482.662 525.15 483.935 531.404 485.9C537.929 478.783 544.67 471.866 551.616 465.16C548.08 459.737 546.923 456.058 545.06 449.882L503.3 449.988C501.173 453.998 498.571 457.422 494.817 460.064C490.826 462.899 485.842 463.96 481.042 462.998C475.726 461.907 471.076 458.716 468.147 454.148C455.517 434.23 487.745 409.599 503.199 438.266C516.785 438.775 531.744 438.479 545.449 438.444C549.381 422.643 558.312 415.669 573.316 410.775C572.437 397.072 572.921 370.31 573.511 356.501C567.242 353.119 561.836 348.508 560.153 341.239C559.075 336.632 559.906 331.785 562.457 327.799C565.812 322.591 570.526 320.504 576.28 319.161ZM580.251 466.892C592.58 466.263 602.117 455.847 601.659 443.511C601.202 431.174 590.919 421.493 578.578 421.779C570.44 421.968 563.035 426.523 559.196 433.7C555.357 440.878 555.679 449.566 560.039 456.439C564.399 463.313 572.122 467.306 580.251 466.892ZM576.942 330.791C574.392 331.513 572.431 333.558 571.816 336.136C571.202 338.715 572.03 341.424 573.98 343.218C575.931 345.013 578.7 345.613 581.218 344.786C585.002 343.543 587.098 339.503 585.934 335.694C584.77 331.886 580.774 329.707 576.942 330.791ZM519.129 495.311C515.168 496.592 512.993 500.837 514.267 504.8C515.541 508.763 519.784 510.945 523.748 509.677C527.722 508.406 529.91 504.152 528.633 500.18C527.356 496.209 523.098 494.027 519.129 495.311ZM578.892 537.972C567.852 541.041 569.74 551.487 579.834 553.391C582.421 552.775 584.003 552.323 585.546 549.968C586.615 548.336 586.984 546.342 586.569 544.435C585.721 540.494 582.629 538.623 578.892 537.972ZM640.267 388.721C644.466 388.225 647.493 384.456 647.071 380.249C646.649 376.042 642.933 372.949 638.719 373.299C635.927 373.53 633.477 375.25 632.311 377.797C631.145 380.344 631.444 383.322 633.093 385.586C634.742 387.851 637.485 389.049 640.267 388.721ZM678.246 436.801C675.552 437.545 673.466 439.678 672.782 442.388C672.099 445.098 672.924 447.966 674.943 449.898C676.961 451.831 679.863 452.53 682.54 451.729C686.619 450.508 688.955 446.232 687.778 442.141C686.601 438.049 682.35 435.668 678.246 436.801ZM481.906 436.806C477.967 438.244 475.88 442.548 477.19 446.532C478.501 450.515 482.736 452.74 486.759 451.558C490.104 450.576 492.385 447.487 492.339 444.002C492.306 441.484 491.055 439.138 488.982 437.708C486.909 436.279 484.272 435.942 481.906 436.806Z"/><path fill="#190B96" d="M451.977 520.187C461.033 519.936 472.012 521.562 480.749 523.766C499.299 528.298 516.186 537.99 529.457 551.72C547.667 570.463 557.673 594.202 557.746 620.187C557.814 644.075 555.424 662.177 568.721 683.722C579.559 701.283 593.761 711.954 613.883 716.916L595.788 716.844C591.555 716.558 586.227 717.127 582.272 716.597C547.489 711.937 527.293 674.165 527.955 641.747C528.259 626.844 530.178 614.202 525.485 600.666C516.68 575.264 495.556 554.501 468.141 551.815C460.14 550.981 447.694 552.075 440.998 547.647C437.915 545.609 435.316 540.218 434.992 536.464C434.63 532.516 435.885 528.59 438.471 525.585C442.464 520.974 446.48 520.508 451.977 520.187Z"/><path fill="#190B96" d="M646.438 480.562C648.603 480.425 650.775 480.629 652.877 481.168C667.58 485.028 664.169 501.289 662.082 512.387C658.075 533.691 651.125 554.628 639.979 573.289C631.232 587.414 621.335 599.354 617.141 615.79C610.203 642.407 613.83 670.767 633.266 691.337C645.858 704.664 659.445 710.463 676.809 715.032L664.97 714.581C630.164 716.932 600.516 703.155 589.549 668.007C580.244 638.182 585.75 602.987 602.74 576.94C613.343 560.683 621.438 550.769 627.877 531.73C630.359 524.423 632.167 516.905 633.278 509.268C635.274 496.017 629.21 484.782 646.438 480.562Z"/><path fill="#190B96" d="M520.787 361.216C526.798 360.874 535.864 361.497 539.594 366.852C541.525 369.643 543.243 376.779 542.421 380.05C538.423 395.975 513.312 388.173 500.531 391.442C474.592 398.078 447.846 413.904 441.811 441.883C439.581 452.221 442.608 460.107 432.618 466.907C420.885 471.629 411.63 466.041 410.961 453.341C409.873 432.66 420.652 413.655 433.864 398.575C456.384 372.871 487.729 363.239 520.787 361.216Z"/></svg>